<svg id="Layer_1" data-name="Layer 1" xmlns="http://www.w3.org/2000/svg" viewBox="0 0 39 97"><defs><style>.cls-1{fill:#ff94ca;}.cls-2{fill:#231f20;}.cls-3{fill:#aba7f6;}.cls-4{fill:#fff;}</style></defs><title>menu-bg-top-left</title><path class="cls-1" d="M33.57,23.3c.68,1.15,1.37,2.3,2,3.46l-4.34,2.79C32,27.47,32.8,25.38,33.57,23.3Zm-9.09,2.87q1.79-5.79,3.86-11.49c-1.25-2-2.52-4-3.81-5.95-1.21,3.61-3.93,11.42-3.93,11.42S23.22,24.32,24.48,26.17ZM20.76,3.09,18.83,4.27a.71.71,0,0,1,0,.2c-.94,2.81-2.38,9-2.38,9s1.94,3.18,3.12,5c1.24-3.7,3.76-11.23,3.9-11.32C22.56,5.76,21.67,4.42,20.76,3.09ZM32.57,21.61c-1-1.69-2-3.36-3.07-5C28.27,20,25.72,28,25.72,28s1.93,2.84,2.41,3.57l.73-.47C30,28.07,32.42,21.7,32.57,21.61Zm-15.89-16q-1.87,1.13-3.74,2.28c0,.39.94,1.84,2.21,3.89C15.63,9.67,16,7.64,16.68,5.59Z"/><path class="cls-2" d="M36.65,26.11c.78-.34-12.44-20.92-14.73-24.38a.83.83,0,0,0-.52-.65l-.12,0a.86.86,0,0,0-1,.32c-2.81,1.76-8.86,5.42-9,5.52a.71.71,0,0,0-.26,1c0,.14,10.69,16.83,16,25a.68.68,0,0,0,.86.31.85.85,0,0,0,.92,0l8.76-5.62C38.34,27.05,37.52,25.73,36.65,26.11Zm-17.1-7.69c-1.18-1.77-3.12-5-3.12-5s1.44-6.19,2.38-9a.71.71,0,0,0,0-.2l1.93-1.18c.91,1.33,1.8,2.67,2.69,4C23.31,7.19,20.79,14.72,19.55,18.42Zm5-9.69c1.29,2,2.56,4,3.81,5.95q-2.09,5.7-3.86,11.49c-1.26-1.85-3.88-6-3.88-6S23.32,12.34,24.53,8.73ZM16.68,5.59c-.64,2.05-1,4.08-1.53,6.17-1.27-2-2.23-3.5-2.21-3.89Q14.8,6.72,16.68,5.59Zm9,22.4s2.55-8,3.78-11.42c1,1.68,2.06,3.35,3.07,5-.15.09-2.59,6.46-3.71,9.48l-.73.47C27.65,30.83,25.72,28,25.72,28Zm5.55,1.56c.77-2.08,1.53-4.17,2.3-6.25.68,1.15,1.37,2.3,2,3.46Z"/><path class="cls-3" d="M28.75,45.52c1.24.51,2.48,1,3.71,1.53l-1.78,4.84Zm-5.52,7.77q-2.07-5.68-3.86-11.48c-2.2-.84-4.41-1.65-6.62-2.45C14,43,16.5,50.83,16.5,50.83S21.11,52.57,23.23,53.29ZM6.34,37.13c-.28.7-.55,1.41-.83,2.11a.69.69,0,0,1,.1.17C6.57,42.22,9.15,48,9.15,48s3.46,1.37,5.47,2.07c-1.24-3.7-3.78-11.23-3.72-11.38Zm20.59,7.65q-2.73-1.11-5.49-2.16C22.53,46.1,25.32,54,25.32,54s3.25,1.09,4.08,1.39l.3-.82C28.76,51.5,26.86,44.94,26.93,44.78ZM4.59,41.59C4.05,43,3.51,44.31,3,45.67c.22.32,1.86.89,4.11,1.77C6.22,45.48,5.32,43.61,4.59,41.59Z"/><path class="cls-2" d="M32.9,45.9c.42-.74-22.54-9.17-26.46-10.55a.82.82,0,0,0-.81-.2l-.11,0a.87.87,0,0,0-.6.86c-1.18,3.1-3.8,9.67-3.86,9.85a.7.7,0,0,0,.37.93c.11.09,18.69,7,27.85,10.34a.7.7,0,0,0,.88-.28.85.85,0,0,0,.72-.57q1.8-4.87,3.59-9.76C34.81,45.63,33.37,45.07,32.9,45.9ZM14.62,50.09c-2-.7-5.47-2.07-5.47-2.07s-2.58-5.8-3.54-8.61a.69.69,0,0,0-.1-.17c.28-.7.55-1.41.83-2.11l4.56,1.58C10.84,38.86,13.38,46.39,14.62,50.09ZM12.75,39.36c2.21.8,4.42,1.61,6.62,2.45q1.78,5.79,3.86,11.48c-2.12-.72-6.73-2.46-6.73-2.46S14,43,12.75,39.36ZM4.59,41.59c.73,2,1.63,3.89,2.51,5.85C4.85,46.56,3.21,46,3,45.67,3.51,44.31,4.05,43,4.59,41.59ZM25.32,54s-2.79-7.9-3.88-11.38q2.76,1.05,5.49,2.16c-.07.16,1.83,6.72,2.77,9.79l-.3.82C28.57,55.09,25.32,54,25.32,54Zm5.36-2.11-1.93-6.37c1.24.51,2.48,1,3.71,1.53Z"/><path class="cls-4" d="M29.73,88.44c4.71,1,3.07,8.5-1.6,7.31S24.75,87.4,29.73,88.44Zm1.9-4.35c3.92-2.81-.78-8.9-4.57-5.92C23.06,81.32,27.71,86.9,31.63,84.09Zm.43-11c3.84-2.86-.92-9-4.58-5.92A3.74,3.74,0,0,0,32.06,73.11Z"/></svg>