<svg id="Layer_1" data-name="Layer 1" xmlns="http://www.w3.org/2000/svg" viewBox="0 0 144 101"><defs><style>.cls-1{fill:none;stroke:#231f20;stroke-linecap:round;stroke-linejoin:round;stroke-width:3px;}.cls-2{fill:#fff;}.cls-3{fill:#0046aa;}.cls-4{fill:#ff94ca;}.cls-5{fill:#231f20;}</style></defs><title>bg-on-board</title><path class="cls-1" d="M68.52,34.32s51.77-.57,55.17,0,7.75,3.4,7.75,7-2.46,6.62-5.67,7-43.84,0-43.84,0"/><path class="cls-1" d="M100.55,48.47s3.87,4.18,3.3,6.07-.56,7.37-5.86,7.94-28.72-1.14-30.23,0S62.28,66.63,63,68.9s1.13,6.8,7.74,7.18,18.33.38,20.41,0,6.8-1.32,7-6.23c0,0-1.52-5.83-4.72-7.26"/><path class="cls-1" d="M67.22,75.28s-5.13,4.58-4.28,8.55,1.42,6.61,12.76,6.42,11,.4,12.47,0,5.29-2.65,5.29-6.05-3-7.8-4.72-7.85"/><path class="cls-1" d="M73.46,90.25s-18.93.29-22.33.15S31.67,83.83,30.35,72.49s-1.82-24.58,3.78-31.22c3.42-4.06,15.68-10.54,18.7-10.54S64,29.6,72.48,37.91,83.82,49.25,81.93,53s-3.78,6.42-7.56,6.23S64,52.27,62.94,51.7,57,49.44,57,49.44"/><path class="cls-2" d="M66.07,16.67a.1.1,0,0,1,0-.13A104,104,0,0,1,73.28,1.05.11.11,0,0,1,73.4,1a27.51,27.51,0,0,1,5.71,2.14.66.66,0,0,1,.29.9l-4.64,9.25a.1.1,0,0,0,0,.14c2.63,1.36,6.33,3.39,9,4.75a.1.1,0,0,1,0,.14l-3.18,5.49a.09.09,0,0,1-.13,0C80,23.52,70,18.41,66.07,16.67Z"/><path class="cls-3" d="M19.12,45.52a.08.08,0,0,1-.09.07A85.3,85.3,0,0,1,5,43.52a.1.1,0,0,1-.07-.09,22.59,22.59,0,0,1,.33-5,.57.57,0,0,1,.65-.45l8.47,1.49a.08.08,0,0,0,.1-.07c.45-2.42,1.19-5.85,1.64-8.26a.09.09,0,0,1,.1-.07l5.13,1.22a.07.07,0,0,1,.06.1C21.25,32.82,19.56,42,19.12,45.52Z"/><path class="cls-4" d="M135.17,89.23c.74,1.22,1.5,2.43,2.23,3.65l-4.57,3.05Zm-9.64,3.23q1.78-6.21,3.9-12.32-2.06-3.15-4.17-6.27c-1.22,3.87-4,12.24-4,12.24S124.16,90.5,125.53,92.46Zm-4.39-24.54-2,1.29a1.8,1.8,0,0,1,0,.22c-1,3-2.37,9.64-2.37,9.64s2.12,3.35,3.41,5.21c1.25-4,3.8-12,4-12.13Q122.63,70,121.14,67.92Zm12.93,19.53c-1.11-1.78-2.24-3.55-3.37-5.31-1.25,3.68-3.82,12.23-3.82,12.23s2.11,3,2.64,3.76l.77-.51C131.42,94.38,133.91,87.54,134.07,87.45ZM116.83,70.66l-3.94,2.5c0,.42,1,1.94,2.43,4.11C115.8,75,116.2,72.86,116.83,70.66Z"/><path class="cls-5" d="M138.49,92.17c.83-.37-13.63-22.07-16.14-25.72a.85.85,0,0,0-.57-.68l-.12,0a.92.92,0,0,0-1.06.36c-3,1.92-9.35,5.94-9.52,6.05a.74.74,0,0,0-.26,1c0,.15,11.71,17.75,17.48,26.41a.74.74,0,0,0,.93.32.92.92,0,0,0,1,0l9.23-6.15C140.32,93.14,139.42,91.75,138.49,92.17Zm-18.36-7.89c-1.29-1.86-3.41-5.21-3.41-5.21s1.42-6.62,2.37-9.64a1.8,1.8,0,0,0,0-.22l2-1.29q1.48,2.1,2.94,4.23C123.93,72.25,121.38,80.32,120.13,84.28Zm5.13-10.41q2.11,3.12,4.17,6.27-2.11,6.1-3.9,12.32c-1.37-2-4.25-6.35-4.25-6.35S124,77.74,125.26,73.87Zm-8.43-3.21c-.63,2.2-1,4.37-1.51,6.61-1.39-2.17-2.44-3.69-2.43-4.11Zm10,23.71s2.57-8.55,3.82-12.23c1.13,1.76,2.26,3.53,3.37,5.31-.16.09-2.65,6.93-3.78,10.17l-.77.51C129,97.36,126.88,94.37,126.88,94.37Zm6,1.56,2.34-6.7c.74,1.22,1.5,2.43,2.23,3.65Z"/><circle class="cls-3" cx="139.16" cy="60.79" r="3.48"/><circle class="cls-2" cx="6.47" cy="66.29" r="5.47"/></svg>