<svg id="Layer_1" data-name="Layer 1" xmlns="http://www.w3.org/2000/svg" viewBox="0 0 30 36">
  <defs>
    <style>
      .cls-1 {
        fill: #c31b6c;
      }
    </style>
  </defs>
  <title>icon-incorrect</title>
  <g>
    <path class="cls-1" d="M11.3,34.44c-.62.34-1.91.51-2-.2-.45-2.63.68-6.62.68-6.62A86.19,86.19,0,0,1,21.18,2a1.63,1.63,0,0,1,.61-.59,1.84,1.84,0,0,1,2.13.48A1.34,1.34,0,0,1,24,3.7,83.66,83.66,0,0,0,12,33.61a1.23,1.23,0,0,1-.67.83Z"/>
    <path class="cls-1" d="M1.68,7.4c-.08-.7.24-1.95.94-1.8,2.61.57,5.89,3.12,5.89,3.12a86.23,86.23,0,0,1,19.5,20,1.69,1.69,0,0,1,.32.78,1.84,1.84,0,0,1-1.25,1.79,1.34,1.34,0,0,1-1.7-.55A83.51,83.51,0,0,0,2.19,8.34a1.22,1.22,0,0,1-.51-.94Z"/>
  </g>
</svg>
