<svg id="Layer_1" data-name="Layer 1" xmlns="http://www.w3.org/2000/svg" viewBox="0 0 54 66">
  <defs>
    <style>
      .cls-1 {
        fill: #ff94ca;
      }

      .cls-2 {
        fill: #231f20;
      }

      .cls-3 {
        fill: #aba7f6;
      }

      .cls-4 {
        fill: #fff;
      }
    </style>
  </defs>
  <title>icon-decoration-submit-1</title>
  <g>
    <g>
      <path class="cls-1" d="M23.11,12l-.65-5.12c1.32-.23,2.64-.44,4-.65Zm14.06,2.15S41.41,7,43.4,3.78c-2.33.28-4.67.58-7,.9q-3,5.25-6.34,10.33C32.29,14.78,37.17,14.12,37.17,14.12ZM45.35,3.57c0,.16-4.14,6.92-6.18,10.25C41.29,13.58,45,13,45,13S48.78,8,50.35,5.43a.58.58,0,0,1,.13-.14l-.33-2.24C48.55,3.21,47,3.38,45.35,3.57ZM23.47,14.8l.11.86,4.29-.43S32.35,8.16,34.2,5c-2,.28-3.89.57-5.84.88C28.4,6.05,25.07,12,23.47,14.8ZM47.1,12.92c2.39-.35,4.11-.54,4.4-.8-.21-1.45-.42-2.89-.65-4.33C49.69,9.59,48.39,11.21,47.1,12.92Z"/>
      <path class="cls-2" d="M20.62,5.92q.64,5.17,1.31,10.33a.86.86,0,0,0,.57.71.7.7,0,0,0,.8.47C33,16.2,52.63,13.67,52.76,13.6a.7.7,0,0,0,.57-.82c0-.19-1.1-7.18-1.56-10.46a.86.86,0,0,0-.39-1l-.1-.06a.82.82,0,0,0-.83,0c-4.13.47-28.4,3.53-28.15,4.35C22,4.73,20.49,4.94,20.62,5.92ZM45.35,3.57c1.6-.19,3.2-.36,4.8-.52l.33,2.24a.58.58,0,0,0-.13.14C48.78,8,45,13,45,13s-3.67.55-5.79.79C41.21,10.49,45.37,3.73,45.35,3.57ZM37.17,14.12s-4.88.66-7.11.89q3.3-5.09,6.34-10.33c2.33-.32,4.67-.62,7-.9C41.41,7,37.17,14.12,37.17,14.12Zm14.33-2c-.29.26-2,.45-4.4.8,1.29-1.71,2.59-3.33,3.75-5.13C51.08,9.23,51.29,10.67,51.5,12.12ZM23.58,15.66l-.11-.86c1.6-2.78,4.93-8.75,4.89-8.92,1.95-.31,3.89-.6,5.84-.88-1.85,3.16-6.33,10.23-6.33,10.23ZM22.46,6.85c1.32-.23,2.64-.44,4-.65L23.11,12Z"/>
    </g>
    <g>
      <path class="cls-3" d="M6.05,34.87,11,33.37c.45,1.26.88,2.53,1.31,3.79ZM6.3,49.09s7.71,3,11.24,4.4c-.67-2.25-1.36-4.51-2.07-6.75Q9.8,44.63,4.23,42.23C4.82,44.39,6.3,49.09,6.3,49.09Zm11.78,6.28c-.15.05-7.52-2.91-11.15-4.36.59,2.05,1.76,5.58,1.76,5.58s5.64,2.91,8.39,4a.74.74,0,0,1,.17.12L19.4,60Q18.76,57.69,18.08,55.37ZM3.32,35.7,2.49,36c.24.84,1.15,4.15,1.15,4.15s7.73,3.23,11.15,4.52c-.61-1.88-1.22-3.75-1.85-5.61C12.78,39.08,6.34,36.81,3.32,35.7Zm5.83,23c.75,2.3,1.23,4,1.53,4.21l4.17-1.37C12.88,60.67,11.06,59.66,9.15,58.67Z"/>
      <path class="cls-2" d="M11.59,31.39l-9.95,3a.85.85,0,0,0-.61.69A.7.7,0,0,0,.7,36c2.85,9.34,8.65,28.28,8.74,28.4a.69.69,0,0,0,.9.42c.18-.05,6.9-2.29,10.05-3.29a.88.88,0,0,0,.9-.56l.05-.11a.83.83,0,0,0-.15-.81c-1.16-4-8.27-27.39-9-27C13,32.58,12.54,31.1,11.59,31.39Zm6.49,24Q18.76,57.7,19.4,60l-2.15.71a.74.74,0,0,0-.17-.12c-2.75-1.11-8.39-4-8.39-4S7.52,53.06,6.93,51C10.56,52.46,17.93,55.42,18.08,55.37ZM6.3,49.09s-1.48-4.7-2.07-6.86q5.57,2.4,11.24,4.51c.71,2.24,1.4,4.5,2.07,6.75C14,52.08,6.3,49.09,6.3,49.09Zm4.38,13.79c-.3-.24-.78-1.91-1.53-4.21,1.91,1,3.73,2,5.7,2.84ZM2.49,36l.83-.26c3,1.11,9.46,3.38,9.62,3.32.63,1.86,1.24,3.73,1.85,5.61-3.42-1.29-11.15-4.52-11.15-4.52S2.73,36.8,2.49,36ZM11,33.37c.45,1.26.88,2.53,1.31,3.79L6.05,34.87Z"/>
    </g>
    <path class="cls-4" d="M19.26,25.11c1.5-4.58,8.72-1.93,7,2.57C24.49,32.44,17.76,29.7,19.26,25.11ZM33.51,35.45c4.55-1.59,1.94-8.82-2.53-7S28.71,37.14,33.51,35.45ZM43,41c4.61-1.4,1.94-8.74-2.54-7A3.74,3.74,0,0,0,43,41Z"/>
  </g>
</svg>
