<svg id="Layer_1" data-name="Layer 1" xmlns="http://www.w3.org/2000/svg" viewBox="0 0 98 62">
  <defs>
    <style>
      .cls-1 {
        fill: #c31b6c;
      }

      .cls-2 {
        fill: #7a65d4;
      }

      .cls-3 {
        fill: #63b8ff;
      }

      .cls-4 {
        fill: #231f20;
      }
    </style>
  </defs>
  <title>icon-decoration-submit-2</title>
  <g>
    <path class="cls-1" d="M94.9,34.77c-.71,4.77-8.27,3.36-7.35-1.37C88.53,28.41,95.62,30,94.9,34.77ZM79.13,26.94c-4.21,2.32-.44,9,3.67,6.52S83.59,24.48,79.13,26.94ZM68.86,23.05c-4.31,2.14-.47,8.94,3.67,6.52A3.74,3.74,0,0,0,68.86,23.05Z"/>
    <path class="cls-2" d="M67,14.79a.08.08,0,0,0,.08.08,81.22,81.22,0,0,0,13.23.51.1.1,0,0,0,.08-.07A21.43,21.43,0,0,0,81,10.62a.52.52,0,0,0-.51-.52l-8-.09a.08.08,0,0,1-.08-.08c0-2.29-.08-5.56-.08-7.85A.08.08,0,0,0,72.18,2l-4.91.24s-.08,0-.07.08C67.23,2.79,67.21,11.47,67,14.79Z"/>
    <g>
      <path class="cls-3" d="M54.23,32.77l4.27-1.59c.46,1.09.91,2.18,1.36,3.27Zm1,12.52s7,2.22,10.15,3.28q-1.06-2.94-2.19-5.85Q58.05,41.18,53,39.35C53.66,41.22,55.21,45.29,55.21,45.29Zm10.73,4.9C65.8,50.24,59.15,48,55.87,47c.63,1.77,1.85,4.82,1.85,4.82s5.13,2.26,7.62,3.1a.75.75,0,0,1,.15.09l1.86-.74C66.89,52.87,66.41,51.53,65.94,50.19ZM51.86,33.65l-.71.27c.26.73,1.24,3.6,1.24,3.6s7,2.43,10.06,3.38q-.95-2.43-1.92-4.85C60.38,36.12,54.58,34.46,51.86,33.65Zm6.38,19.93a18.65,18.65,0,0,0,1.58,3.63l3.6-1.43C61.63,55.14,60,54.35,58.24,53.58Z"/>
      <path class="cls-4" d="M58.92,29.4l-8.61,3.21a.78.78,0,0,0-.5.64.61.61,0,0,0-.24.77c3,8.09,9.15,24.47,9.23,24.57a.62.62,0,0,0,.82.32c.16-.06,6-2.39,8.68-3.44a.78.78,0,0,0,.77-.54l0-.1a.7.7,0,0,0-.18-.71c-1.23-3.45-8.76-23.7-9.41-23.33C60.24,30.37,59.74,29.1,58.92,29.4Zm7,20.79c.47,1.34,1,2.68,1.41,4L65.49,55a.75.75,0,0,0-.15-.09c-2.49-.84-7.62-3.1-7.62-3.1S56.5,48.72,55.87,47C59.15,48,65.8,50.24,65.94,50.19Zm-10.73-4.9S53.66,41.22,53,39.35q5,1.82,10.15,3.37,1.13,2.91,2.19,5.85C62.17,47.51,55.21,45.29,55.21,45.29Zm4.61,11.92a18.65,18.65,0,0,1-1.58-3.63c1.74.77,3.39,1.56,5.18,2.2ZM51.15,33.92l.71-.27c2.72.81,8.52,2.47,8.67,2.4q1,2.41,1.92,4.85c-3.08-.95-10.06-3.38-10.06-3.38S51.41,34.65,51.15,33.92Zm7.35-2.74c.46,1.09.91,2.18,1.36,3.27l-5.63-1.68Z"/>
    </g>
    <path class="cls-4" d="M2.16,37.06C.78,30,8.75,26.62,14.57,27.94c4.49,1,8.29,3.71,12.47,5.5,7,3,13.88,1.42,18-5.27.35-.57,1.26-.1.92.47-4.08,6.69-11.08,8.94-18.33,6.12-4.33-1.68-8.2-4.56-12.75-5.71-5-1.25-13,1-11.69,7.71.12.64-.86,1-1,.3Z"/>
  </g>
</svg>
