<svg id="Layer_1" data-name="Layer 1" xmlns="http://www.w3.org/2000/svg" viewBox="0 0 30 36"><defs><style>.cls-1{fill:#0046aa;}</style></defs><title>icon-correct</title><path class="cls-1" d="M16.37,34.27a1.69,1.69,0,0,1-2-.2C9.55,28.18,8.3,26.75,1.79,25.39c-.59-.12-.92-.39-1-.89a2.08,2.08,0,0,1,1-2A1.7,1.7,0,0,1,3,22.32a15.5,15.5,0,0,1,10.2,5.76l1.38,1.27L15,27.52A85.13,85.13,0,0,1,26.12,2.25a1.68,1.68,0,0,1,.61-.58,1.82,1.82,0,0,1,2.1.47A1.33,1.33,0,0,1,29,3.9,82.64,82.64,0,0,0,17,33.45a1.22,1.22,0,0,1-.66.82"/></svg>