<?xml version="1.0" encoding="utf-8"?>
<!-- Generator: Adobe Illustrator 24.0.0, SVG Export Plug-In . SVG Version: 6.00 Build 0)  -->
<svg version="1.1" id="Layer_1" xmlns="http://www.w3.org/2000/svg" xmlns:xlink="http://www.w3.org/1999/xlink" x="0px" y="0px"
	 viewBox="0 0 27 27" style="enable-background:new 0 0 27 27;" xml:space="preserve">
<style type="text/css">
	.st0{fill:#FFFFFF;}
</style>
<title>icon-box-top-right</title>
<path class="st0" d="M4,7c1.7,0,3-1.3,3-3S5.7,1,4,1S1,2.3,1,4S2.3,7,4,7z M13.6,7c1.7,0,3-1.3,3-3s-1.3-3-3-3s-3,1.3-3,3
	S11.9,7,13.6,7z M23.1,20c-1.7,0-3,1.3-3,3c0,1.7,1.3,3,3,3c1.6,0,3-1.3,3-3C26.1,21.4,24.8,20.1,23.1,20L23.1,20z M23.1,7
	c1.7,0,3-1.3,3-3s-1.3-3-3-3s-3,1.3-3,3C20.1,5.7,21.5,7,23.1,7C23.1,7,23.2,7,23.1,7L23.1,7z M23.1,10.5c-1.7,0-3,1.3-3,3
	s1.3,3,3,3s3-1.3,3-3C26.1,11.8,24.8,10.5,23.1,10.5L23.1,10.5z"/>
</svg>
