<?xml version="1.0" encoding="utf-8"?>
<!-- Generator: Adobe Illustrator 24.0.0, SVG Export Plug-In . SVG Version: 6.00 Build 0)  -->
<svg version="1.1" id="Layer_1" xmlns="http://www.w3.org/2000/svg" xmlns:xlink="http://www.w3.org/1999/xlink" x="0px" y="0px"
	 viewBox="0 0 300 360" style="enable-background:new 0 0 300 360;" xml:space="preserve">
<style type="text/css">
	.st0{fill:none;stroke:#FFFFFF;stroke-width:3;stroke-miterlimit:10;}
	.st1{fill:#0046AA;stroke:#FFFFFF;stroke-width:3;stroke-miterlimit:10;}
	.st2{fill:#FF94CA;}
	.st3{fill:#231F20;}
	.st4{fill:#63B8FF;}
	.st5{fill:#FFFFFF;stroke:#FFFFFF;stroke-width:3;stroke-miterlimit:10;}
</style>
<title>img-hand-phone</title>
<path class="st0" d="M114.9,13.4h108.7c8.1,0,14.6,6.6,14.6,14.6v236.7c0,8.1-6.6,14.6-14.6,14.6H114.9c-8.1,0-14.6-6.6-14.6-14.6
	V28.1C100.2,20,106.8,13.4,114.9,13.4z"/>
<path class="st1" d="M90.5,346.6c2.8-1.9,14-13.1,28.9-17.3s46.7-19.1,63.5-49.7l-0.1-0.1h-67.9c-8.1,0-14.6-6.6-14.6-14.6l0,0
	v-69.4c0-7.9,0.6-17.4,2.3-26c2.5-13.1,5.3-33.6,7.2-50.4c0-0.5,0.1-1,0.1-1.5c0-0.2,0-0.3,0-0.5c0-0.3,0-0.7,0-1s0-0.4,0-0.6
	s0-0.6,0-0.9s0-0.4,0-0.6s0-0.6-0.1-0.9l-0.1-0.6l-0.1-0.9l-0.1-0.6c0-0.3-0.1-0.6-0.2-0.9s-0.1-0.3-0.1-0.5c-0.1-0.3-0.2-0.7-0.2-1
	c0-0.1-0.1-0.3-0.1-0.4c-0.1-0.5-0.2-0.9-0.4-1.4c0-0.1,0-0.1,0-0.2l0,0c-0.1-0.4-0.2-0.8-0.4-1.2c0-0.1-0.1-0.3-0.2-0.4l0,0
	c-0.1-0.3-0.2-0.6-0.3-0.9l0,0c-0.1-0.2-0.1-0.3-0.2-0.5s-0.2-0.5-0.3-0.8s-0.1-0.3-0.2-0.4s0-0.1-0.1-0.1c-0.1-0.2-0.2-0.5-0.3-0.8
	l-0.3-0.5l-0.4-0.7c0,0,0-0.1-0.1-0.1l-0.2-0.4l-0.4-0.7c-0.1-0.2-0.2-0.3-0.3-0.5l-0.5-0.8l-0.3-0.4c-0.2-0.4-0.5-0.8-0.7-1.1
	l-0.3-0.5l-0.4-0.6l-0.2-0.3l-0.2-0.3l-0.4-0.5c0,0-0.1-0.1-0.1-0.1l-0.3-0.4l-0.4-0.5l-0.5-0.6l-0.4-0.4l-0.4-0.5l-0.1-0.1
	l-0.3-0.4l-0.5-0.6l-0.3-0.3c-0.2-0.2-0.4-0.4-0.6-0.7L98,89.5l0,0c-1-1.1-2.1-2.2-3.1-3.2l-0.1-0.1L94,85.6l-0.1-0.1l-0.7-0.6
	l-0.1-0.1c-1.3-1.2-2.6-2.2-3.8-3c-8.4-6.1-16.8,7-16.3,11.7s4.7,16.3-4.9,43.2c-11,30.7-26.3,59.5-29.8,86.1
	c-6.2,47.4-18.9,65.1-18.9,65.1"/>
<path class="st1" d="M239.1,107.3c3.7,0,24.3-2.3,26.1,7s3.3,18.7-26.1,29L239.1,107.3z"/>
<path class="st1" d="M246.6,227.3c6-4.1,15.2,1.9,18,8.4s1.9,14-4.2,17.7c-6.1,3.7-15.4,9.8-23.3,0S238.2,233.1,246.6,227.3z"/>
<path class="st1" d="M261.5,186.4c6,0.3,19.9,9.7,17.6,18.1s-21.5,20.1-25.4,22.9s-18.2,0.9-21.1-3.3s-0.5-17.3,5.5-21.5
	s17.6-12.6,17.6-12.6L261.5,186.4z"/>
<path class="st2" d="M243.5,291.1c-4.5,1.6-7.1-5.6-2.4-7.1S248.3,289.4,243.5,291.1z M244.2,295.8c-1.9,4.4,5.3,7.2,7,2.7
	C252.9,293.7,246.1,291.4,244.2,295.8z M249.6,305.4c-1.8,4.5,5.5,7.2,7,2.7c0.7-1.9-0.2-4.1-2.2-4.8
	C252.5,302.5,250.3,303.5,249.6,305.4L249.6,305.4L249.6,305.4z"/>
<path class="st3" d="M255,267.7c-0.2-1.7,2.5-1.9,2.7-0.1l1.5,10.6c0.2,1.7-2.5,1.9-2.7,0.1L255,267.7z M262.1,264.1l9.8,8.3
	c1.3,1.1,3.2-0.9,1.8-2l-9.8-8.2C262.6,261,260.8,263,262.1,264.1L262.1,264.1z M266.9,257.2l12.3,1.5c1.7,0.2,2.3-2.5,0.6-2.7
	l-12.3-1.5C265.8,254.3,265.2,257,266.9,257.2L266.9,257.2z"/>
<g>
	<path class="st4" d="M227.6,300.6l-0.1-12.7l-37-0.1c0,4.6,0.3,13.7,0.3,13.7l36.3-0.4C227.1,301.1,227.6,301.1,227.6,300.6z"/>
	<path class="st3" d="M200.6,296.4c-2.3,2.2-5.7-1.3-3.5-3.5S202.9,294.2,200.6,296.4z M211.1,296.3c2.3-2.2-1.2-5.8-3.5-3.5
		S208.8,298.5,211.1,296.3z M219.9,296.4c2.3-2.2-1.2-5.8-3.5-3.5S217.6,298.6,219.9,296.4z"/>
</g>
<path class="st5" d="M132.5,13.4c5.3,0.2,12,6.9,12.7,9.8s46,2.5,49.3,2s6-11.9,12-11.8"/>
<path class="st1" d="M235.7,168.8c4.7-4.7,12.6-14,22.4-12.1c9.8,1.9,18.2,9.8,14.9,17.7s-12.4,17.3-18.3,19.6c-6,2.4-12.5,2.4-19-6
	S231.3,173.2,235.7,168.8z"/>
</svg>
