<svg id="Layer_1" data-name="Layer 1" xmlns="http://www.w3.org/2000/svg" viewBox="0 0 140 94">
  <defs>
    <style>
      .cls-1 {
        fill: #0046aa;
      }

      .cls-1, .cls-2 {
        stroke: #fff;
        stroke-linejoin: round;
        stroke-width: 2.5px;
      }

      .cls-2 {
        fill: none;
      }

      .cls-3 {
        fill: #231f20;
      }

      .cls-4 {
        fill: #63b8ff;
      }

      .cls-5 {
        fill: #ff94ca;
      }
    </style>
  </defs>
  <title>img-chapter-2-article-8</title>
  <g>
    <circle class="cls-1" cx="23.59" cy="43.71" r="4.81"/>
    <path class="cls-2" d="M18.78,43.71,13.59,72.37s2.31,8.84,10,8.65,11.34-7.88,11.34-9.81-6.53-27.5-6.53-27.5"/>
    <line class="cls-2" x1="13.96" y1="70.33" x2="34.93" y2="71.21"/>
    <line class="cls-2" x1="23.59" y1="38.9" x2="55.32" y2="24.1"/>
    <line class="cls-2" x1="59.56" y1="21.98" x2="99.93" y2="3.08"/>
    <path class="cls-2" d="M63.4,40.15s-3.32-20-4.62-20.33-4.47-.43-4.18,2.88,6.49,27.84,6.49,27.84l.43,36.06s1.59,3.75,5.48,1.15c.58-5.48.72-18.6.72-18.6s2.45-1.16,2.6.14,0,19.38,0,19.38,2,2.4,4.76-.63c1.32-7,1.15-37.79,1.15-37.79l4.18,15.29s2.17,1.73,3.47-.14-2.07-20.07-4.14-22.87S63.4,40.15,63.4,40.15Z"/>
    <path class="cls-3" d="M111,49.2c-.24-1.74,2.49-1.87,2.73-.15l1.46,10.57c.24,1.75-2.48,1.87-2.72.15L111,49.2Zm7.15-3.61,9.76,8.26c1.34,1.13,3.17-.89,1.82-2l-9.76-8.26c-1.34-1.13-3.17.89-1.82,2Zm4.76-6.87,12.29,1.51c1.73.22,2.33-2.45.58-2.66l-12.28-1.52c-1.73-.21-2.33,2.46-.59,2.67Z"/>
    <path class="cls-4" d="M128.67,28.63a.05.05,0,0,1,0,.05A52.11,52.11,0,0,1,120,27.43a0,0,0,0,1,0-.05,13.62,13.62,0,0,1,.2-3.09.33.33,0,0,1,.39-.27l5.19.89a.05.05,0,0,0,.06,0c.27-1.48.71-3.58,1-5.06a.06.06,0,0,1,.07,0l3.13.73a.06.06,0,0,1,0,.07C130,20.86,128.94,26.47,128.67,28.63Z"/>
    <g>
      <path class="cls-5" d="M32,23.47l-.93,2.7-3.52-1.06Zm-5.75-3.6c2.64-1.14,5.3-2.21,8-3.22.5-1.59,1-3.2,1.46-4.81-2.51,1-8,3.15-8,3.15S26.67,18.33,26.25,19.87ZM37,7.2,35.5,6.7a.5.5,0,0,1-.12.08c-2,.79-6,2.87-6,2.87s-.83,2.51-1.24,4c2.57-1,7.81-3.15,7.92-3.11C36.41,9.41,36.73,8.3,37,7.2Zm-4.58,15c.45-1.33.88-2.66,1.31-4-2.43.92-7.93,3.22-7.93,3.22s-.64,2.36-.81,3l.59.18C27.75,23.73,32.34,22.1,32.45,22.15Zm1.34-16-3-1a15.14,15.14,0,0,0-1.08,3C31.09,7.46,32.39,6.74,33.79,6.14Z"/>
      <path class="cls-3" d="M31.9,26.43c.54.27,5.58-16.39,6.4-19.23a.59.59,0,0,0,.11-.58l0-.08a.62.62,0,0,0-.64-.39c-2.25-.72-7-2.3-7.16-2.34a.5.5,0,0,0-.64.3c-.06.09-4.18,13.57-6.19,20.22a.48.48,0,0,0,.23.61.61.61,0,0,0,.43.49l7.09,2.15C32.17,27.78,32.51,26.73,31.9,26.43ZM28.17,13.62c.41-1.46,1.24-4,1.24-4s4-2.08,6-2.87a.5.5,0,0,0,.12-.08L37,7.2c-.3,1.1-.62,2.21-.94,3.31C36,10.47,30.74,12.58,28.17,13.62Zm7.54-1.78c-.47,1.61-1,3.22-1.46,4.81-2.7,1-5.36,2.08-8,3.22.42-1.54,1.47-4.88,1.47-4.88S33.2,12.86,35.71,11.84Zm-1.92-5.7c-1.4.6-2.7,1.32-4.05,2a15.14,15.14,0,0,1,1.08-3Zm-8,15.24s5.5-2.3,7.93-3.22c-.43,1.33-.86,2.66-1.31,4-.11,0-4.7,1.58-6.84,2.37L25,24.34C25.19,23.74,25.83,21.38,25.83,21.38Zm1.72,3.73L32,23.47l-.93,2.7Z"/>
    </g>
    <circle class="cls-5" cx="38.63" cy="84.34" r="1.91"/>
    <circle class="cls-4" cx="5" cy="42.37" r="3"/>
    <circle class="cls-1" cx="102.51" cy="6.81" r="4.81"/>
    <path class="cls-2" d="M97.7,6.81,92.51,35.46s2.31,8.85,10,8.66,11.35-7.89,11.35-9.81-6.54-27.5-6.54-27.5"/>
    <line class="cls-2" x1="92.88" y1="33.43" x2="113.86" y2="34.31"/>
    <circle class="cls-1" cx="72.24" cy="35.03" r="6.38"/>
  </g>
</svg>
