<svg xmlns="http://www.w3.org/2000/svg" viewBox="0 0 300 360">
  <defs>
    <style>
      .cls-1 {
        fill: none;
      }

      .cls-1, .cls-2, .cls-6 {
        stroke: #fff;
        stroke-miterlimit: 10;
        stroke-width: 3px;
      }

      .cls-2 {
        fill: #0046aa;
      }

      .cls-3 {
        fill: #ff94ca;
      }

      .cls-4 {
        fill: #231f20;
      }

      .cls-5 {
        fill: #63b8ff;
      }

      .cls-6 {
        fill: #fff;
      }
    </style>
  </defs>
  <title>img-hand-phone</title>
  <g id="Layer_1" data-name="Layer 1">
    <g>
      <rect class="cls-1" x="100.24" y="13.44" width="138" height="266" rx="14.63"/>
      <path class="cls-2" d="M90.51,346.56c2.8-1.87,14-13.07,28.94-17.27s46.68-19.11,63.49-49.7l-.15-.15H114.87a14.63,14.63,0,0,1-14.63-14.63V195.44c0-7.93,3.94-17.6,6.27-26s9.34-33.61,11.21-50.42c0-.5.09-1,.12-1.48,0-.17,0-.33,0-.49,0-.33,0-.66,0-1s0-.38,0-.57,0-.6,0-.89,0-.4,0-.59,0-.58-.07-.87l-.06-.59-.12-.86-.09-.56c0-.3-.11-.59-.16-.89s-.07-.35-.11-.52c-.07-.33-.15-.66-.23-1,0-.13-.06-.26-.1-.39-.12-.46-.25-.92-.39-1.37a1.09,1.09,0,0,1,0-.17h0q-.18-.58-.39-1.17c0-.14-.1-.28-.16-.42v0q-.15-.45-.33-.87l0,0c-.06-.16-.13-.32-.19-.47s-.22-.53-.34-.79-.11-.26-.17-.39,0-.1-.07-.14c-.11-.25-.23-.5-.35-.75l-.27-.54-.37-.73s0-.08-.07-.13l-.21-.39-.4-.72c-.1-.17-.19-.34-.29-.5l-.46-.77-.26-.43c-.24-.38-.48-.75-.73-1.12l-.33-.49-.44-.64-.21-.29-.19-.27-.4-.54a1.34,1.34,0,0,0-.11-.14l-.33-.44-.37-.48-.46-.59-.36-.44-.42-.5-.07-.09-.33-.39-.53-.61-.28-.31c-.19-.22-.39-.44-.59-.65l-.07-.08h0c-1-1.13-2.09-2.18-3.13-3.15l-.09-.09-.72-.67-.11-.09-.72-.64-.08-.07c-1.34-1.16-2.63-2.18-3.8-3-8.41-6.07-16.81,7-16.34,11.67s4.67,16.34-4.9,43.18c-11,30.74-34.31,59.52-37.82,86.12-6.24,47.44-18.9,65.12-18.9,65.12"/>
      <path class="cls-2" d="M239.09,107.35c3.73,0,24.27-2.33,26.14,7s3.27,18.68-26.14,29Z"/>
      <path class="cls-2" d="M223.68,164.77c4.66-4.68,12.61-14,22.41-12.14s18.2,9.81,14.94,17.74S248.67,187.64,242.71,190s-12.49,2.39-19-6S219.29,169.18,223.68,164.77Z"/>
      <path class="cls-2" d="M248.46,186.39c6,.32,19.86,9.66,17.61,18.06s-21.53,20.07-25.42,22.87-18.24.94-21.1-3.26-.54-17.28,5.53-21.48S242.71,190,242.71,190Z"/>
      <path class="cls-2" d="M240.65,227.32c6-4.12,15.24,1.87,18,8.41s1.87,14-4.2,17.73-15.4,9.81-23.34,0S232.22,233.05,240.65,227.32Z"/>
      <path class="cls-3" d="M243.53,291.11c-4.54,1.62-7.06-5.65-2.45-7.07S248.32,289.4,243.53,291.11Zm.65,4.7c-1.87,4.44,5.32,7.17,7,2.66C252.94,293.69,246.05,291.36,244.18,295.81Zm5.38,9.58c-1.78,4.45,5.51,7.24,7,2.66A3.74,3.74,0,0,0,249.56,305.39Z"/>
      <path class="cls-4" d="M255,267.7c-.24-1.74,2.49-1.87,2.73-.14l1.46,10.57c.24,1.74-2.48,1.87-2.72.14L255,267.7Zm7.15-3.61,9.76,8.26c1.34,1.13,3.17-.89,1.82-2l-9.76-8.25c-1.34-1.14-3.17.89-1.82,2Zm4.76-6.87,12.29,1.52c1.73.21,2.33-2.46.58-2.67l-12.28-1.51c-1.73-.22-2.33,2.45-.59,2.66Z"/>
      <g>
        <path class="cls-5" d="M227.56,300.64l-.13-12.73-37-.14c0,4.57.31,13.74.31,13.74l36.33-.37S227.56,301.12,227.56,300.64Z"/>
        <path class="cls-4" d="M200.64,296.38c-2.28,2.23-5.74-1.31-3.46-3.53s5.74,1.31,3.46,3.53Zm10.45-.06c2.27-2.23-1.18-5.77-3.46-3.54s1.18,5.77,3.46,3.54Zm8.79.09c2.28-2.22-1.18-5.76-3.46-3.53s1.18,5.76,3.46,3.53Z"/>
      </g>
    </g>
    <path class="cls-6" d="M132.52,13.38c5.34.19,12,6.86,12.67,9.84s46,2.48,49.33,2,6-11.89,12-11.83"/>
  </g>
</svg>
