<svg id="Layer_1" data-name="Layer 1" xmlns="http://www.w3.org/2000/svg" viewBox="0 0 46 46">
  <defs>
    <style>
      .cls-1 {
        fill: #0046aa;
      }
    </style>
  </defs>
  <title>logo-latitude</title>
  <path class="cls-1" d="M8.48,37.52H45.34v7.82H.66V.66H8.48Zm8.38-29A3.91,3.91,0,1,0,13,4.57,3.91,3.91,0,0,0,16.86,8.48Zm12.28,0a3.91,3.91,0,1,0-3.91-3.91A3.91,3.91,0,0,0,29.14,8.48ZM41.43,25.24a3.91,3.91,0,1,0,3.91,3.91A3.91,3.91,0,0,0,41.43,25.24Zm0-16.76a3.91,3.91,0,1,0-3.91-3.91A3.91,3.91,0,0,0,41.43,8.48Zm0,4.47a3.91,3.91,0,1,0,3.91,3.91A3.91,3.91,0,0,0,41.43,13Z"/>
</svg>
