<?xml version="1.0" encoding="utf-8"?>
<!-- Generator: Adobe Illustrator 16.0.4, SVG Export Plug-In . SVG Version: 6.00 Build 0)  -->
<!DOCTYPE svg PUBLIC "-//W3C//DTD SVG 1.1//EN" "http://www.w3.org/Graphics/SVG/1.1/DTD/svg11.dtd">
<svg version="1.1" xmlns="http://www.w3.org/2000/svg" xmlns:xlink="http://www.w3.org/1999/xlink" x="0px" y="0px" width="32px"
	 height="32px" viewBox="0 0 32 32" enable-background="new 0 0 32 32" xml:space="preserve">
<g id="circle">
	<circle fill="#CE616E" cx="16" cy="16" r="16"/>
</g>
<g id="facebook">
	<path fill="#FFFFFF" d="M11.7514648,15.6386719h1.6303711v8.4375h3.4838867v-8.4375h2.1723633l0.6020508-2.550293h-2.7744141
		v-0.9506836c0-0.6191406,0.1123047-1.0385742,0.3378906-1.2563477c0.2241211-0.2182617,0.6713867-0.3833008,1.1904297-0.3833008
		c0.5268555,0,0.9492188,0.2802734,1.4819336,0.5908203l0.6347656-2.3989258
		c-0.9780273-0.2753906-1.7758789-0.6137695-2.7954102-0.6137695c-0.9946289,0-1.9589844,0.1591797-2.609375,0.4755859
		c-0.6503906,0.3183594-1.1186523,0.8793945-1.3613281,1.3842773c-0.2426758,0.5053711-0.362793,1.1196289-0.362793,2.1445312
		v1.0078125h-1.6303711V15.6386719z"/>
</g>
</svg>
