<?xml version="1.0" encoding="utf-8"?>
<!-- Generator: Adobe Illustrator 16.0.4, SVG Export Plug-In . SVG Version: 6.00 Build 0)  -->
<!DOCTYPE svg PUBLIC "-//W3C//DTD SVG 1.1//EN" "http://www.w3.org/Graphics/SVG/1.1/DTD/svg11.dtd">
<svg version="1.1" id="circle" xmlns="http://www.w3.org/2000/svg" xmlns:xlink="http://www.w3.org/1999/xlink" x="0px" y="0px"
	 width="32px" height="32px" viewBox="0 0 32 32" enable-background="new 0 0 32 32" xml:space="preserve">
<circle fill="#CE616E" cx="16" cy="16" r="16"/>
<path fill-rule="evenodd" clip-rule="evenodd" fill="#FFFFFF" d="M12.9897461,21.8457031c-1.1450195,0-2.2924805,0-3.4379883,0
	c0.0053711-2.9433594,0.0102539-5.8886719,0.0161133-8.8325195c0.0004883-0.3393555,0-0.6777344,0-1.0576172
	c1.1445312,0,2.262207,0,3.421875,0C12.9897461,15.2553711,12.9897461,18.5512695,12.9897461,21.8457031z M11.7319336,10.5522461
	c-0.6035156,0.0761719-1.1918945,0.0444336-1.7050781-0.3564453C9.4477539,9.7431641,9.2749023,9.1357422,9.4111328,8.4526367
	c0.140625-0.6962891,0.6479492-1.0683594,1.3081055-1.2539062c0.1015625-0.0273438,0.2026367-0.0551758,0.3066406-0.0834961
	c0.1904297,0,0.3803711,0,0.5727539,0c0.1293945,0.0341797,0.2602539,0.0649414,0.3896484,0.1025391
	c0.8037109,0.234375,1.3017578,0.9306641,1.2402344,1.7421875C13.171875,9.7626953,12.5405273,10.4482422,11.7319336,10.5522461z
	 M25.0209961,21.8457031c-1.1464844,0-2.2929688,0-3.4375,0c-0.0009766-1.8930664,0.0136719-3.7895508-0.0058594-5.6835938
	c-0.0151367-1.3798828-1.0795898-2.159668-2.3330078-1.7529297c-0.7587891,0.2495117-1.2392578,0.9838867-1.2431641,1.9169922
	c-0.0073242,1.8408203-0.0126953,3.6816406-0.0200195,5.5195312c-1.1171875,0-2.2368164,0-3.355957,0
	c0-1.1694336,0.0024414-2.3398438-0.0009766-3.5107422c-0.0048828-2.0014648-0.0102539-4.003418-0.015625-6.0048828
	c0-0.1201172,0.0107422-0.2373047,0.0195312-0.3808594c1.1181641,0,2.215332,0,3.355957,0c0,0.40625,0,0.8076172,0,1.2958984
	c0.1201172-0.1049805,0.1821289-0.1435547,0.2265625-0.1982422c1.0102539-1.3012695,2.3789062-1.5488281,3.8798828-1.2431641
	c1.4194336,0.2910156,2.9301758,1.7866211,2.9301758,3.6591797C25.0209961,17.6601562,25.0209961,19.7192383,25.0209961,21.8457031z
	"/>
</svg>
