<svg id="Layer_1" data-name="Layer 1" xmlns="http://www.w3.org/2000/svg" viewBox="0 0 146 116"><defs><style>.cls-1{fill:none;stroke:#231f20;stroke-linecap:round;stroke-linejoin:round;stroke-width:3px;}.cls-2{fill:#fff;}.cls-3{fill:#0046aa;}.cls-4{fill:#ff94ca;}.cls-5{fill:#231f20;}</style></defs><title>bg-congratulations</title><path class="cls-1" d="M78.94,56.42s30.64-.32,34,.25,7.74,3.4,7.74,7-2.45,6.62-5.66,7-29.62,0-29.62,0-8.5,7.33.47,15.24"/><path class="cls-1" d="M120.06,70.82s3.88,4.18,3.31,6.07-.57,7.37-5.86,7.94-28.72-1.14-30.23,0S81.8,89,82.55,91.25s1.14,6.8,7.75,7.18,18.33.38,20.41,0,6.8-1.32,7-6.23c0,0-1.53-5.83-4.72-7.26"/><path class="cls-1" d="M86.73,97.63s-5.12,4.58-4.27,8.55,1.42,6.61,12.75,6.42,11,.4,12.48,0,5.29-2.65,5.29-6-3-7.8-4.73-7.85"/><path class="cls-1" d="M93,112.6s-18.92.29-22.32.15-19.46-6.57-20.79-17.91-1.81-24.58,3.78-31.22c3.43-4.06,10.87-16.73,12.14-19.47,6.83-14.84,3.5-18.84,10.83-20.5,7-1.6,9.32,3.64,8.57,11.69-.4,4.21-3.9,9.85-6.9,17.58C76.9,56.45,76.8,64.15,76.8,64.15"/><path class="cls-1" d="M94.12,56.33c-3.33,0-8.83,7-2.33,14.32"/><path class="cls-2" d="M121.14,49.91a.11.11,0,0,1-.12-.07A103.85,103.85,0,0,1,118.33,33a.11.11,0,0,1,.07-.11,27.24,27.24,0,0,1,5.93-1.44.67.67,0,0,1,.75.57l1.35,10.27a.09.09,0,0,0,.11.09c2.94-.35,7.14-.75,10.08-1.1a.09.09,0,0,1,.11.09l.46,6.33a.11.11,0,0,1-.1.11C136.49,47.78,125.37,49.15,121.14,49.91Z"/><path class="cls-3" d="M34.26,92.31a.09.09,0,0,1,.12,0,86.64,86.64,0,0,1,9.76,10.33.11.11,0,0,1,0,.11,22.81,22.81,0,0,1-3.39,3.76.57.57,0,0,1-.79,0l-5.73-6.42a.09.09,0,0,0-.12,0c-1.85,1.62-4.55,3.86-6.4,5.48a.09.09,0,0,1-.13,0l-3.27-4.13a.08.08,0,0,1,0-.12C24.73,101,31.72,94.82,34.26,92.31Z"/><path class="cls-4" d="M32.92,71.68c1.45.4,2.9.79,4.34,1.2l-1.33,5.63C34.93,76.23,33.93,74,32.92,71.68Zm-5.09,9.39Q24.76,75,22,68.81q-3.84-1-7.7-1.84C16.12,70.83,20,79.24,20,79.24S25.37,80.56,27.83,81.07Zm-21-15.72c-.2.82-.42,1.64-.63,2.46a.83.83,0,0,1,.13.18c1.44,3,5.1,9.11,5.1,9.11s4,1.05,6.36,1.56c-1.88-4-5.71-12-5.66-12.16C10.38,66.11,8.62,65.72,6.85,65.35Zm24,5.74q-3.19-.86-6.4-1.66c1.68,3.73,5.84,12.14,5.84,12.14l4.73,1,.22-.95C33.74,78.33,30.74,71.28,30.8,71.09ZM5.51,70.55c-.42,1.58-.84,3.17-1.24,4.76.29.32,2.19.74,4.82,1.41C7.85,74.66,6.59,72.7,5.51,70.55Z"/><path class="cls-5" d="M37.59,71.55c.37-.88-26.31-7.18-30.86-8.19a.93.93,0,0,0-.92-.12l-.12.06a1,1,0,0,0-.56,1c-.9,3.6-2.92,11.27-3,11.47a.77.77,0,0,0,.54,1c.13.09,21.73,5.25,32.38,7.77a.78.78,0,0,0,.94-.42,1,1,0,0,0,.72-.73q1.35-5.69,2.69-11.35C39.69,71,38,70.56,37.59,71.55ZM17.81,78.66c-2.33-.51-6.36-1.56-6.36-1.56S7.79,71,6.35,68a.83.83,0,0,0-.13-.18c.21-.82.43-1.64.63-2.46,1.77.37,3.53.76,5.3,1.15C12.1,66.68,15.93,74.71,17.81,78.66ZM14.29,67q3.86.89,7.7,1.84Q24.75,75,27.83,81.07C25.37,80.56,20,79.24,20,79.24S16.12,70.83,14.29,67ZM5.51,70.55c1.08,2.15,2.34,4.11,3.58,6.17-2.63-.67-4.53-1.09-4.82-1.41C4.67,73.72,5.09,72.13,5.51,70.55Zm24.73,11s-4.16-8.41-5.84-12.14q3.21.81,6.4,1.66c-.06.19,2.94,7.24,4.39,10.53l-.22.95Zm5.69-3.06c-1-2.28-2-4.55-3-6.83,1.45.4,2.9.79,4.34,1.2Z"/><circle class="cls-2" cx="125.43" cy="103.1" r="3.48"/><circle class="cls-3" cx="138.4" cy="72.32" r="5.47"/><path class="cls-5" d="M94.2,41.15c-2.22-.9-.52-4.22,1.69-3.33l13.51,5.46c2.22.9.52,4.22-1.69,3.33L94.2,41.15Zm.6-10.92,16.42-5.93c2.25-.81,1.1-4.36-1.16-3.54L93.64,26.69c-2.25.82-1.1,4.36,1.16,3.54ZM89.91,19.91,100.07,6.4C101.5,4.5,98.75,2,97.31,3.9L87.15,17.41c-1.43,1.9,1.32,4.42,2.76,2.5Z"/></svg>