<svg id="Layer_1" data-name="Layer 1" xmlns="http://www.w3.org/2000/svg" viewBox="0 0 59 89"><defs><style>.cls-1{fill:#0fdbf3;}.cls-2{fill:#fff;}.cls-3{fill:#231f20;}</style></defs><title>menu-bg-bottom-right</title><path class="cls-1" d="M49.39,4.52l3.78-1.34L55.08,8ZM50.47,14q-5.36-2.85-10.54-6-3.3,1.27-6.57,2.6c3.31,1.88,10.46,6,10.46,6S48.41,14.87,50.47,14ZM27.1,13.24c.27.71.53,1.42.79,2.13a.42.42,0,0,1,.19.06c2.59,1.45,8.39,4,8.39,4s3.49-1.29,5.45-2.11c-3.39-1.92-10.31-5.83-10.37-6ZM47.54,5.18q-2.77,1-5.53,2.06c3.14,1.86,10.48,5.88,10.48,5.88l4-1.69-.32-.8C53.39,9,47.59,5.35,47.54,5.18ZM28.78,17.73q.75,2.06,1.53,4.11c.38.09,2-.58,4.24-1.43C32.59,19.54,30.67,18.74,28.78,17.73Z"/><path class="cls-2" d="M52.73,2c-.18-.83-22.9,8.22-26.74,9.81a.81.81,0,0,0-.73.39l-.06.1a.87.87,0,0,0,.13,1.05C26.51,16.48,29,23.12,29,23.3a.69.69,0,0,0,.89.44c.15,0,18.56-7.29,27.64-10.91A.69.69,0,0,0,58,12a.85.85,0,0,0,.16-.9q-1.94-4.83-3.85-9.67C54,.55,52.53,1.1,52.73,2ZM41.92,17.36c-2,.82-5.45,2.11-5.45,2.11s-5.8-2.59-8.39-4a.42.42,0,0,0-.19-.06c-.26-.71-.52-1.42-.79-2.13l4.45-1.87C31.61,11.53,38.53,15.44,41.92,17.36Zm-8.56-6.74Q36.63,9.3,39.93,8q5.19,3.12,10.54,6c-2.06.88-6.65,2.67-6.65,2.67S36.67,12.5,33.36,10.62Zm-4.58,7.11c1.89,1,3.81,1.81,5.77,2.68-2.26.85-3.86,1.52-4.24,1.43Q29.53,19.78,28.78,17.73Zm23.71-4.61S45.15,9.1,42,7.24q2.76-1.05,5.53-2.06c.05.17,5.85,3.78,8.59,5.45l.32.8ZM55.08,8,49.39,4.52l3.78-1.34Z"/><path class="cls-2" d="M33.91,37.57C32.05,42,25,39,27.05,34.6S35.89,32.88,33.91,37.57Zm3.91,2.69c2,4.38,8.89.93,6.69-3.36C42.18,32.38,35.81,35.88,37.82,40.26Zm10.7,2.51c2.08,4.32,9.07.83,6.68-3.36A3.74,3.74,0,0,0,48.52,42.77Z"/><path class="cls-3" d="M1.63,69c.1-2.67,4.21-2.14,4.11.51L5.11,85.69C5,88.36.9,87.82,1,85.18L1.63,69Zm11.64-3.49L25.65,80.45c1.7,2,5-.49,3.27-2.54L16.53,63c-1.7-2-5,.48-3.26,2.54Zm9-9,18,5.54c2.53.78,4.13-3,1.58-3.83L23.81,52.69c-2.53-.78-4.13,3-1.59,3.82Z"/></svg>