<svg id="Layer_1" data-name="Layer 1" xmlns="http://www.w3.org/2000/svg" viewBox="0 0 65 61"><defs><style>.cls-1{fill:#ff94ca;}.cls-2{fill:#231f20;}.cls-3{fill:#aba7f6;}</style></defs><title>bg-score-bottom-right</title><path class="cls-1" d="M11.46,30.2c.52-1.14,1-2.28,1.55-3.41l4.46,1.82Zm7.07,5.4q-5.39,1.76-10.84,3.22c-.85,2-1.69,4.06-2.5,6.1C8.59,43.9,16,41.79,16,41.79S17.79,37.55,18.53,35.6ZM2.9,50.82l1.94.84A.61.61,0,0,1,5,51.57c2.65-.8,8.15-3,8.15-3s1.38-3.18,2.11-5c-3.49,1-10.6,3.15-10.73,3.1C4,48,3.43,49.41,2.9,50.82Zm7.81-18.95c-.75,1.67-1.48,3.36-2.2,5.05,3.29-.91,10.74-3.24,10.74-3.24s1.13-3,1.43-3.76l-.75-.3C17,30.38,10.85,31.94,10.71,31.87ZM7,52.6l3.75,1.62a18.94,18.94,0,0,0,1.78-3.77C10.68,51.2,8.9,52,7,52.6Z"/><path class="cls-2" d="M12,26.35c-.68-.42-9.3,20.71-10.72,24.31a.78.78,0,0,0-.21.75l0,.1a.82.82,0,0,0,.79.59C4.69,53.31,10.74,56,10.9,56a.65.65,0,0,0,.88-.32c.09-.09,7.11-17.19,10.56-25.62a.65.65,0,0,0-.23-.83.82.82,0,0,0-.5-.69l-9-3.67C11.76,24.55,11.2,25.88,12,26.35Zm3.3,17.17c-.73,1.85-2.11,5-2.11,5s-5.5,2.22-8.15,3a.61.61,0,0,0-.16.09L2.9,50.82C3.43,49.41,4,48,4.53,46.62,4.66,46.67,11.77,44.56,15.26,43.52ZM5.19,44.92c.81-2,1.65-4.08,2.5-6.1q5.46-1.47,10.84-3.22C17.79,37.55,16,41.79,16,41.79S8.59,43.9,5.19,44.92ZM7,52.6c1.9-.62,3.68-1.4,5.53-2.15a18.94,18.94,0,0,1-1.78,3.77ZM19.25,33.68S11.8,36,8.51,36.92c.72-1.69,1.45-3.38,2.2-5.05.14.07,6.32-1.49,9.22-2.25l.75.3C20.38,30.68,19.25,33.68,19.25,33.68Zm-1.78-5.07-6,1.59c.52-1.14,1-2.28,1.55-3.41Z"/><path class="cls-3" d="M29.83,41c-4.28.29-4.69-6.56-.39-6.67S34.36,40.66,29.83,41Zm-.58,4.19c-2.68,3.37,2.83,7.45,5.36,4C37.29,45.47,31.94,41.8,29.25,45.16Zm2.3,9.54c-2.61,3.39,3,7.55,5.36,4A3.34,3.34,0,0,0,31.55,54.7Z"/><path class="cls-2" d="M35.35,14.24c-2.19-.75-1.41-4.29.8-3.54A122.72,122.72,0,0,1,63,23.63c2,1.26.29,4.48-1.67,3.22a119,119,0,0,0-26-12.61ZM29,22.06a116,116,0,0,1,18.69,17c1.54,1.74,4-.94,2.45-2.68a116.38,116.38,0,0,0-18.69-17C29.54,18,27.07,20.69,29,22.06ZM40,4.63A101.31,101.31,0,0,1,60.61,8.06c2.26.62,3-2.92.81-3.54A106.89,106.89,0,0,0,39.88,1C37.54.86,37.69,4.49,40,4.63Z"/></svg>