<svg id="Layer_1" data-name="Layer 1" xmlns="http://www.w3.org/2000/svg" viewBox="0 0 63 54">
  <defs>
    <style>
      .cls-1 {
        fill: #0fdbf3;
      }

      .cls-2 {
        fill: #231f20;
      }

      .cls-3 {
        fill: #aba7f6;
      }

      .cls-4 {
        fill: #ff94ca;
      }
    </style>
  </defs>
  <title>icon-decoration-submit-3</title>
  <g>
    <g>
      <path class="cls-1" d="M32.23,39.11l.88,5.09L29.18,45ZM18.1,37.59s-3.93,7.27-5.77,10.6q3.48-.57,7-1.21,2.79-5.37,5.87-10.59C23,36.71,18.1,37.59,18.1,37.59ZM10.4,48.5c0-.16,3.82-7.11,5.71-10.52-2.1.33-5.75,1-5.75,1s-3.59,5.24-5,7.83a1,1,0,0,1-.13.15c.14.74.29,1.49.43,2.23C7.21,49,8.81,48.75,10.4,48.5ZM31.75,36.3l-.15-.86c-.86.14-4.26.63-4.26.63s-4.17,7.26-5.87,10.49c1.93-.36,3.86-.73,5.79-1.13C27.22,45.26,30.27,39.15,31.75,36.3ZM8.23,39.23c-2.37.45-4.09.72-4.36,1,.27,1.44.55,2.87.84,4.3C5.79,42.67,7,41,8.23,39.23Z"/>
      <path class="cls-2" d="M35,45,33.23,34.79a.85.85,0,0,0-.6-.69.71.71,0,0,0-.82-.43C22.19,35.33,2.67,38.73,2.55,38.8a.7.7,0,0,0-.54.84c0,.19,1.42,7.13,2,10.39a.86.86,0,0,0,.44,1l.1.06a.85.85,0,0,0,.83,0c4.1-.65,28.21-4.8,27.93-5.6C33.64,46.3,35.17,46,35,45ZM10.4,48.5c-1.59.25-3.19.5-4.78.73-.14-.74-.29-1.49-.43-2.23a1,1,0,0,0,.13-.15c1.45-2.59,5-7.83,5-7.83s3.65-.71,5.75-1C14.22,41.39,10.37,48.34,10.4,48.5Zm7.7-10.91s4.85-.88,7.06-1.2Q22.09,41.61,19.29,47q-3.48.65-7,1.21C14.17,44.86,18.1,37.59,18.1,37.59ZM3.87,40.22c.27-.27,2-.54,4.36-1C7,41,5.79,42.67,4.71,44.52,4.42,43.09,4.14,41.66,3.87,40.22ZM31.6,35.44l.15.86c-1.48,2.85-4.53,9-4.49,9.13-1.93.4-3.86.77-5.79,1.13,1.7-3.23,5.87-10.49,5.87-10.49S30.74,35.58,31.6,35.44Zm1.51,8.76L29.18,45l3-5.92Z"/>
    </g>
    <path class="cls-3" d="M43.35,26.29c3.69-3.1,8.42,3,4.6,5.89C43.92,35.28,39.65,29.4,43.35,26.29ZM50,42.6c4.7,1,6.31-6.48,1.56-7.32S45,41.49,50,42.6Zm5.13,9.71c4.65,1.25,6.27-6.39,1.56-7.31A3.74,3.74,0,0,0,55.12,52.31Z"/>
    <path class="cls-4" d="M45.86,13.74a.09.09,0,0,1,0-.13A93.34,93.34,0,0,1,56.21,2a.11.11,0,0,1,.12,0,24.29,24.29,0,0,1,4.41,3.36.6.6,0,0,1,0,.86L54.3,13.07a.09.09,0,0,0,0,.13c1.94,1.87,4.62,4.6,6.56,6.47a.1.1,0,0,1,0,.14l-4.2,3.94a.09.09,0,0,1-.13,0C56.16,23.34,48.82,16.28,45.86,13.74Z"/>
  </g>
</svg>
