<svg id="Layer_1" data-name="Layer 1" xmlns="http://www.w3.org/2000/svg" viewBox="0 0 90 60">
  <defs>
    <style>
      .cls-1 {
        fill: #ff94ca;
      }

      .cls-2 {
        fill: #231f20;
      }

      .cls-3 {
        fill: #c31b6c;
      }
    </style>
  </defs>
  <title>icon-decoration-speech-bubble-1</title>
  <g>
    <g>
      <path class="cls-1" d="M85.06,49c.47,1.25,1,2.5,1.41,3.76l-4.76,2C82.83,52.83,83.94,50.91,85.06,49Zm-9.45,1.25q2.76-5.4,5.79-10.64c-.89-2.19-1.79-4.36-2.72-6.53-1.82,3.35-5.85,10.57-5.85,10.57S74.69,48.2,75.61,50.24ZM76,26.86l-2.11.83a.67.67,0,0,1,0,.19c-1.41,2.61-3.9,8.46-3.9,8.46s1.35,3.46,2.21,5.41c1.86-3.43,5.65-10.41,5.8-10.47Q76.94,29.06,76,26.86Zm8.42,20.29c-.7-1.83-1.43-3.66-2.16-5.49-1.8,3.17-5.7,10.59-5.7,10.59s1.42,3.12,1.77,3.93l.8-.33C80.69,53.07,84.2,47.21,84.37,47.15ZM71.49,28.62c-1.36.52-2.72,1.06-4.08,1.6-.08.38.62,2,1.51,4.22C69.76,32.46,70.51,30.53,71.49,28.62Z"/>
      <path class="cls-2" d="M87.6,52.29c.83-.2-8.62-22.76-10.27-26.57a.82.82,0,0,0-.41-.72l-.1-.06a.89.89,0,0,0-1,.15c-3.07,1.24-9.66,3.8-9.84,3.88a.68.68,0,0,0-.42.9c0,.14,7.61,18.43,11.38,27.44a.71.71,0,0,0,.8.46.86.86,0,0,0,.91.13l9.6-4C89.11,53.51,88.53,52.07,87.6,52.29ZM72.1,41.75c-.86-2-2.21-5.41-2.21-5.41s2.49-5.85,3.9-8.46a.67.67,0,0,0,0-.19L76,26.86q1,2.2,2,4.42C77.75,31.34,74,38.32,72.1,41.75Zm6.58-8.68c.93,2.17,1.83,4.34,2.72,6.53q-3,5.24-5.79,10.64c-.92-2-2.78-6.6-2.78-6.6S76.86,36.42,78.68,33.07Zm-7.19-4.45c-1,1.91-1.73,3.84-2.57,5.82-.89-2.25-1.59-3.84-1.51-4.22C68.77,29.68,70.13,29.14,71.49,28.62Zm5,23.63s3.9-7.42,5.7-10.59c.73,1.83,1.46,3.66,2.16,5.49-.17.06-3.68,5.92-5.29,8.7l-.8.33C77.93,55.37,76.51,52.25,76.51,52.25Zm5.2,2.49c1.12-1.91,2.23-3.83,3.35-5.75.47,1.25,1,2.5,1.41,3.76Z"/>
    </g>
    <path class="cls-3" d="M51.75,34.1c-4.47-1.79-1.55-8.91,2.85-6.92S56.47,36,51.75,34.1Zm-2.63,4c-4.34,2.09-.76,8.89,3.48,6.62C57.08,42.27,53.48,36,49.12,38.06ZM46.8,48.8c-4.28,2.15-.66,9.07,3.48,6.62A3.74,3.74,0,0,0,46.8,48.8Z"/>
    <path class="cls-2" d="M19.76,2.37c2.67.06,2.21,4.17-.44,4.12L3.13,6.14C.46,6.09.92,2,3.57,2l16.19.35Zm3.69,11.57L8.73,26.59c-2,1.73.57,5,2.6,3.22L26.05,17.17c2-1.74-.57-5-2.6-3.23Zm9.15,8.8L27.38,40.79c-.74,2.54,3.11,4.08,3.85,1.52l5.23-18c.73-2.54-3.12-4.08-3.86-1.52Z"/>
  </g>
</svg>
