<svg id="Layer_1" data-name="Layer 1" xmlns="http://www.w3.org/2000/svg" viewBox="0 0 60 60">
  <defs>
    <style>
      .cls-1 {
        fill: #ff94ca;
      }

      .cls-2 {
        fill: #fff;
      }
    </style>
  </defs>
  <title>icon-play-1</title>
  <g>
    <circle class="cls-1" cx="30" cy="30" r="29"/>
    <path class="cls-2" d="M42.12,29.3a.12.12,0,0,1,0,.17A126,126,0,0,1,27.8,44.54a.15.15,0,0,1-.16,0,33.41,33.41,0,0,1-5.76-4.66.82.82,0,0,1,0-1.15l8.93-8.89a.12.12,0,0,0,0-.17c-2.51-2.58-6-6.35-8.51-8.93a.13.13,0,0,1,0-.18l5.78-5.1a.11.11,0,0,1,.17,0C28.73,16,38.26,25.78,42.12,29.3Z"/>
  </g>
</svg>
