<?xml version="1.0" encoding="utf-8"?>
<!-- Generator: Adobe Illustrator 16.0.4, SVG Export Plug-In . SVG Version: 6.00 Build 0)  -->
<!DOCTYPE svg PUBLIC "-//W3C//DTD SVG 1.1//EN" "http://www.w3.org/Graphics/SVG/1.1/DTD/svg11.dtd">
<svg version="1.1" xmlns="http://www.w3.org/2000/svg" xmlns:xlink="http://www.w3.org/1999/xlink" x="0px" y="0px" width="26px"
	 height="36px" viewBox="0 0 26 36" enable-background="new 0 0 26 36" xml:space="preserve">
<g id="Layer_3">
	<polygon fill="#515A6B" points="19,35 19,29 7,29 7,35 6,35 6,36 20,36 20,35 	"/>
	<polygon fill="#97A2B2" points="17,28 17,28 15,28 13,28 9,28 9,28 8,29 11.1386719,29 12.8613281,29 15.1386719,29 16.8613281,29 
		18,29 	"/>
	<rect x="8" y="30" fill="#97A2B2" width="10" height="5"/>
	<path fill="#FFDF56" d="M4,2c0,1.0263672,0.0581055,2.0283203,0.1625977,3c0.0361328,0.3388672,0.0849609,0.6689453,0.1328125,1
		c0.3950195,2.7089844,1.1704102,5.1445312,2.2304688,7.0986328c0.3427734,0.6318359,0.7158203,1.2060547,1.1123047,1.7304688
		C9.1367188,16.8125,10.9882812,18,13,18s3.8632812-1.1875,5.3613281-3.1708984
		c0.3974609-0.5244141,0.7705078-1.0996094,1.1123047-1.7304688C20.5341797,11.1445312,21.3095703,8.7080078,21.7041016,6
		c0.0488281-0.3310547,0.0966797-0.6611328,0.1337891-1C21.9414062,4.0283203,22,3.0263672,22,2H4z"/>
	<polygon opacity="0.2" points="19,35 19,34 19,29 18,29 17,28 16,28 14,28 13,28 13,36 20,36 20,35 	"/>
	<polygon fill="#FFDF56" points="21.9716797,0 4.0283203,0 3,0 3,2 4,2 22,2 23,2 23,0 	"/>
	<path fill="#FFDF56" d="M15,27c0,0-1-2-1-10h-2c0,8-1,10-1,10c-0.5522461,0-1,0.4472656-1,1h3h3C16,27.4472656,15.5527344,27,15,27
		z"/>
	<path fill="#FFD300" d="M15,27c0,0-1-2-1-10h-1v11h3C16,27.4472656,15.5527344,27,15,27z"/>
	<path fill="#FFDF56" d="M25,3h-1h-1v2h-1.1621094c-0.0371094,0.3388672-0.0849609,0.6689453-0.1337891,1H24V5V4h0.9492188
		c-0.3154297,3.8212891-2.4208984,7.1337891-5.4755859,9.0986328c-0.3417969,0.6308594-0.7148438,1.2060547-1.1123047,1.7304688
		C22.5693359,12.9150391,25.5810547,8.8320312,25.9492188,4C25.9746094,3.6689453,26,3.3378906,26,3H25z"/>
	<path fill="#FFD300" d="M25,3h-1h-1v2h-1.1621094c-0.0371094,0.3388672-0.0849609,0.6689453-0.1337891,1H24V5V4h0.9492188
		c-0.3154297,3.8212891-2.4208984,7.1337891-5.4755859,9.0986328c-0.3417969,0.6308594-0.7148438,1.2060547-1.1123047,1.7304688
		C22.5693359,12.9150391,25.5810547,8.8320312,25.9492188,4C25.9746094,3.6689453,26,3.3378906,26,3H25z"/>
	<path fill="#FFDF56" d="M6.5253906,13.0986328C3.4726562,11.1337891,1.3671875,7.8212891,1.0507812,4H2v1v1h2.2949219
		c-0.046875-0.3310547-0.0957031-0.6611328-0.1328125-1H3V3H2H1H0c0,0.3378906,0.0253906,0.6689453,0.0507812,1
		c0.3691406,4.8320312,3.3798828,8.9150391,7.5878906,10.8291016C7.2421875,14.3046875,6.8691406,13.7304688,6.5253906,13.0986328z"
		/>
	<path fill="#FFD300" d="M21.9716797,0H13v18c2.0117188,0,3.8632812-1.1875,5.3613281-3.1708984
		c0.3974609-0.5244141,0.7705078-1.0996094,1.1123047-1.7304688C20.5341797,11.1445312,21.3095703,8.7080078,21.7041016,6
		c0.0488281-0.3310547,0.0966797-0.6611328,0.1337891-1C21.9414062,4.0283203,22,3.0263672,22,2h1V0H21.9716797z"/>
	<polygon fill="#FFB300" points="13.0214844,6.0527344 13.9042969,7.8398438 15.8769531,8.1269531 14.4492188,9.5195312 
		14.7861328,11.484375 13.0214844,10.5566406 11.2568359,11.484375 11.59375,9.5195312 10.1660156,8.1269531 12.1386719,7.8398438 	
		"/>
	<path fill="#FFB400" d="M5,2l16.9736328,0.9433594C21.984375,2.6298828,22,2.3183594,22,2H5z"/>
	<path fill="#FFB400" d="M14.0068359,17.8935547C13.6767578,17.9628906,13.3442383,18,13.003418,18
		C12.6616211,18,12,17.953125,12,17.8847656c0,0.0371094,0,0.0761719,0,0.1123047l2.0214844,0.6748047
		C14.0166016,18.421875,14.0097656,18.1582031,14.0068359,17.8935547z"/>
	<rect x="9" y="31" fill="#515A6B" width="8" height="1"/>
	<rect x="10" y="33" fill="#515A6B" width="6" height="1"/>
	<polygon fill="#FFDF56" points="7.2001953,0 6.3999023,2 7.3999023,2 8.2001953,0 	"/>
	<polygon opacity="0.6" fill="#FFFFFF" points="6.2001953,0 5.3999023,2 6.3999023,2 7.2001953,0 	"/>
	<polygon opacity="0.6" fill="#FFFFFF" points="8.2001953,0 7.3999023,2 9.3999023,2 10.2001953,0 	"/>
</g>
</svg>
