<?xml version="1.0" encoding="utf-8"?>
<!-- Generator: Adobe Illustrator 16.0.4, SVG Export Plug-In . SVG Version: 6.00 Build 0)  -->
<!DOCTYPE svg PUBLIC "-//W3C//DTD SVG 1.1//EN" "http://www.w3.org/Graphics/SVG/1.1/DTD/svg11.dtd">
<svg version="1.1" id="Layer_1" xmlns="http://www.w3.org/2000/svg" xmlns:xlink="http://www.w3.org/1999/xlink" x="0px" y="0px"
	 width="320px" height="480px" viewBox="0 0 320 480" enable-background="new 0 0 320 480" xml:space="preserve">
<rect fill="#293449" width="320" height="480"/>
<g>
	<polygon fill="#515A6B" points="40,67.1518555 39,71.1611328 35,72.1630859 39,73.1650391 40,77.1728516 41,73.1650391 
		45,72.1630859 41,71.1611328 	"/>
	<polygon fill="#515A6B" points="150,107.2338867 149,111.2431641 145,112.2451172 149,113.2470703 150,117.2548828 
		151,113.2470703 155,112.2451172 151,111.2431641 	"/>
	<polygon fill="#515A6B" points="290,147.3168945 289,151.3251953 285,152.3271484 289,153.3291016 290,157.3369141 
		291,153.3291016 295,152.3271484 291,151.3251953 	"/>
	<polygon fill="#515A6B" points="200,9.0332031 199,13.0410156 195,14.0429688 199,15.0449219 200,19.0541992 201,15.0449219 
		205,14.0429688 201,13.0410156 	"/>
	<circle fill="#515A6B" cx="60.5" cy="150.8239746" r="1.5031738"/>
	<circle fill="#515A6B" cx="170.5" cy="200.927002" r="1.5031738"/>
	<circle fill="#515A6B" cx="130.5" cy="301.1328125" r="1.5029297"/>
	<circle fill="#515A6B" cx="180.5" cy="371.2763672" r="1.5029297"/>
	<circle fill="#515A6B" cx="100.5" cy="351.2353516" r="1.5029297"/>
	<circle fill="#515A6B" cx="100.5" cy="421.3798828" r="1.5029297"/>
	<circle fill="#515A6B" cx="30.5" cy="461.4619141" r="1.5029297"/>
	<circle fill="#515A6B" cx="300.5" cy="391.3173828" r="1.5029297"/>
	<circle fill="#515A6B" cx="230.5" cy="441.4208984" r="1.5029297"/>
	<circle fill="#515A6B" cx="190.5" cy="60.638916" r="1.5031738"/>
	<circle fill="#515A6B" cx="70.5" cy="31.5791016" r="1.5029297"/>
	<circle fill="#515A6B" cx="270.5" cy="30.5771484" r="1.5029297"/>
	<circle fill="#515A6B" cx="240.5" cy="128.7790527" r="1.5031738"/>
	<circle fill="#515A6B" cx="270.5" cy="249.0263672" r="1.5029297"/>
	<circle fill="#515A6B" cx="50.5" cy="299.1289062" r="1.5029297"/>
	<polygon fill="#515A6B" points="100,229.4858398 99,233.4941406 95,234.4960938 99,235.4980469 100,239.5058594 101,235.4980469 
		105,234.4960938 101,233.4941406 	"/>
	<polygon fill="#515A6B" points="140,449.9375 139,453.9462891 135,454.9482422 139,455.9501953 140,459.9589844 141,455.9501953 
		145,454.9482422 141,453.9462891 	"/>
	<polygon fill="#515A6B" points="20,359.7529297 19,363.7617188 15,364.7636719 19,365.765625 20,369.7734375 21,365.765625 
		25,364.7636719 21,363.7617188 	"/>
	<polygon fill="#515A6B" points="240,309.6503906 239,313.6582031 235,314.6601562 239,315.6621094 240,319.6708984 
		241,315.6621094 245,314.6601562 241,313.6582031 	"/>
</g>
</svg>
