<?xml version="1.0" encoding="utf-8"?>
<!-- Generator: Adobe Illustrator 16.0.4, SVG Export Plug-In . SVG Version: 6.00 Build 0)  -->
<!DOCTYPE svg PUBLIC "-//W3C//DTD SVG 1.1//EN" "http://www.w3.org/Graphics/SVG/1.1/DTD/svg11.dtd">
<svg version="1.1" id="Layer_1" xmlns="http://www.w3.org/2000/svg" xmlns:xlink="http://www.w3.org/1999/xlink" x="0px" y="0px"
	 width="237px" height="87px" viewBox="0 0 237 87" enable-background="new 0 0 237 87" xml:space="preserve">
<g id="Layer_2">
	<path fill="#FFFFFF" d="M235.9580078,72.671875C235.9736328,72.3984375,236,72.0517578,236,71.7744141
		c0-8.2490234-6.6875-14.9746094-14.9365234-14.9746094c-3.9228516,0-7.4824219,1.5068359-10.1474609,3.9794922
		c-1.3740234-2.4326172-3.9609375-4.0976562-6.9541016-4.0976562c-0.0859375,0-0.1660156,0.0048828-0.2490234,0.0078125
		c-1.6289062-12.0664062-11.9423828-21.3818359-24.4550781-21.3818359c-7.7685547,0-14.6904297,3.59375-19.21875,9.2001953
		c-2.7099609-2.3935547-6.2578125-3.8603516-10.1572266-3.8603516c-2.6835938,0-5.2060547,0.6923828-7.4003906,1.9023438
		c-0.7900391-2.2714844-1.8984375-4.3896484-3.2802734-6.3037109c0.4208984-1.8056641,0.6660156-3.6796875,0.6660156-5.6132812
		c0-13.6425781-11.0605469-24.703125-24.7041016-24.703125c-3.0117188,0-5.8857422,0.5654297-8.5546875,1.5527344
		c-2.7490234-4.1513672-7.4560547-6.8945312-12.8085938-6.8945312c-7.8154297,0-14.2519531,5.8427734-15.2167969,13.3935547
		c-0.2714844-0.0068359-0.5361328-0.0410156-0.8076172-0.0410156c-13.6425781,0-24.703125,11.4052734-24.703125,25.0488281
		C53.0722656,39.2128906,53.1005859,40,53.1064453,40c-0.0107422,0-0.0214844,0-0.0341797,0
		c-3.5224609,0-6.5068359,1.9316406-7.5791016,5.0917969c-1.9619141-0.9082031-4.1376953-1.6035156-6.4414062-1.6035156
		c-8.3808594,0-15.1816406,6.6308594-15.3398438,14.9746094c-4.2246094,0.9326172-7.7783203,3.5644531-9.90625,7.1816406
		c-1.4580078-1.1875-3.3154297-1.9072266-5.3417969-1.9072266C3.7900391,63.7373047,0,67.5253906,0,72.1992188
		c0,4.5048828,3.5214844,8.1748047,7.9589844,8.4375l0.0068359,0.0253906l211.8671875,5.9111328
		c0.4072266,0.0332031,0.8154297,0.0625,1.2304688,0.0625c0.1191406,0,0.2353516-0.015625,0.3535156-0.0175781l0.6416016,0.0175781
		l0.0185547,0.1005859C229.5205078,86.2363281,235.4570312,80,235.9492188,73h0.0253906
		C235.9716797,73,235.9619141,72.7324219,235.9580078,72.671875z"/>
</g>
</svg>
