<?xml version="1.0" encoding="utf-8"?>
<!-- Generator: Adobe Illustrator 16.0.4, SVG Export Plug-In . SVG Version: 6.00 Build 0)  -->
<!DOCTYPE svg PUBLIC "-//W3C//DTD SVG 1.1//EN" "http://www.w3.org/Graphics/SVG/1.1/DTD/svg11.dtd">
<svg version="1.1" xmlns="http://www.w3.org/2000/svg" xmlns:xlink="http://www.w3.org/1999/xlink" x="0px" y="0px"
	 width="795px" height="165px" viewBox="0 0 795 165" enable-background="new 0 0 795 165"
	 xml:space="preserve">
<g id="Layer_2">
	<path fill="#1D2633" d="M794.0004883,141c0-13.2548828-10.7451172-24-24-24c-3.4628906,0-6.7519531,0.7392578-9.7255859,2.0595703
		C757.8969727,115.9873047,754.1850586,114,750.0004883,114c-0.4199219,0-0.8349609,0.0234375-1.2451172,0.0625
		C747.0834961,102.1611328,736.862793,93,724.5004883,93c-3.6103516,0-7.0361328,0.7880859-10.1220703,2.1904297
		C712.269043,92.6318359,709.074707,91,705.5004883,91c-3.7558594,0-7.0810547,1.8085938-9.1796875,4.59375
		c-1.4179688-0.8349609-3.0263672-1.3798828-4.75-1.5400391c0.2783203-1.4755859,0.4296875-2.9970703,0.4296875-4.5537109
		c0-13.5292969-10.9707031-24.5-24.5-24.5c-9.7939453,0-18.2441406,5.7509766-22.1650391,14.0585938
		c-1.4433594,0.1455078-2.8027344,0.5664062-4.0390625,1.1962891C637.3666992,77.5712891,632.6176758,76,627.5004883,76
		c-2.2832031,0-4.4912109,0.3193359-6.5888672,0.9042969c-1.1279297-1.6064453-2.65625-2.9033203-4.4384766-3.7617188
		c4.0488281-4.3701172,6.5273438-10.2158203,6.5273438-16.6425781c0-13.5292969-10.9707031-24.5-24.5-24.5
		c-4.9765625,0-9.6044922,1.4882812-13.4707031,4.0390625C583.1743164,34.7558594,580.9272461,34,578.5004883,34
		c-1.2578125,0-2.4648438,0.2089844-3.5976562,0.5820312C571.0942383,25.9941406,562.4985352,20,552.5004883,20
		c-1.0449219,0-2.0712891,0.0732422-3.0820312,0.2001953C546.9956055,9.21875,537.2094727,1,525.5004883,1
		c-11.1142578,0-20.4960938,7.4052734-23.4931641,17.5488281C500.9008789,18.1953125,499.7241211,18,498.5004883,18
		c-5.1630859,0-9.53125,3.4033203-10.9853516,8.0888672C486.8500977,26.0351562,486.1791992,26,485.5004883,26
		c-13.5292969,0-24.5,10.9707031-24.5,24.5c0,0.203125,0.0107422,0.4042969,0.015625,0.6064453
		c-5.2431641,0.6777344-9.3808594,4.8779297-9.9462891,10.1552734C449.9038086,61.0917969,448.7133789,61,447.5004883,61
		c-13.5292969,0-24.5,10.9707031-24.5,24.5c0,1.8808594,0.21875,3.7089844,0.6201172,5.4677734
		c-1.4296875,0.7050781-2.7451172,1.5966797-3.9462891,2.6191406C417.5756836,90.8056641,414.2524414,89,410.5004883,89
		c-1.6230469,0-3.1660156,0.3408203-4.5664062,0.9472656c-1.9853516-2.8535156-5.2294922-4.7626953-8.9335938-4.9228516
		c-4,0.1601562-6.9033203,2.0693359-8.8886719,4.9228516C386.7114258,89.3408203,385.2133789,89,383.590332,89
		c-3.7519531,0-7.0751953,1.8056641-9.1738281,4.5869141c-1.2011719-1.0224609-2.5166016-1.9140625-3.9462891-2.6191406
		c0.4013672-1.7587891,0.6201172-3.5869141,0.6201172-5.4677734c0-13.5292969-10.9707031-24.5-24.5-24.5
		c-1.2128906,0-2.4033203,0.0917969-3.5693359,0.2617188c-0.5654297-5.2773438-4.703125-9.4775391-9.9462891-10.1552734
		c0.0048828-0.2021484,0.015625-0.4033203,0.015625-0.6064453c0-13.5292969-10.9707031-24.5-24.5-24.5
		c-0.6787109,0-1.3496094,0.0351562-2.0146484,0.0888672C305.121582,21.4033203,300.753418,18,295.590332,18
		c-1.2236328,0-2.4003906,0.1953125-3.5068359,0.5488281C289.0864258,8.4052734,279.7045898,1,268.590332,1
		c-11.7089844,0-21.4951172,8.21875-23.9179688,19.2001953C243.6616211,20.0732422,242.6352539,20,241.590332,20
		c-9.9980469,0-18.59375,5.9941406-22.4023438,14.5820312C218.0551758,34.2089844,216.8481445,34,215.590332,34
		c-2.4267578,0-4.6738281,0.7558594-6.5292969,2.0390625C205.1948242,33.4882812,200.5668945,32,195.590332,32
		c-13.5292969,0-24.5,10.9707031-24.5,24.5c0,6.4267578,2.4785156,12.2724609,6.5273438,16.6425781
		c-1.7822266,0.8583984-3.3105469,2.1552734-4.4384766,3.7617188C171.081543,76.3193359,168.8735352,76,166.590332,76
		c-5.1171875,0-9.8662109,1.5712891-13.7958984,4.2548828c-1.2363281-0.6298828-2.5957031-1.0507812-4.0390625-1.1962891
		C144.8344727,70.7509766,136.3842773,65,126.590332,65c-13.5292969,0-24.5,10.9707031-24.5,24.5
		c0,1.5566406,0.1513672,3.078125,0.4296875,4.5537109c-1.7236328,0.1601562-3.3320312,0.7050781-4.75,1.5400391
		C95.6713867,92.8085938,92.3461914,91,88.590332,91c-3.5742188,0-6.7685547,1.6318359-8.8779297,4.1904297
		C76.6264648,93.7880859,73.2006836,93,69.590332,93c-12.3623047,0-22.5830078,9.1611328-24.2548828,21.0625
		C44.925293,114.0234375,44.5102539,114,44.090332,114c-4.0498047,0-7.6455078,1.8710938-10.0288086,4.7753906
		C31.2651367,117.6337891,28.2075195,117,25.0004883,117c-13.2548828,0-24,10.7451172-24,24s10.7451172,24,24,24h748v-0.1933594
		C784.8383789,163.3291016,794.0004883,153.2382812,794.0004883,141z"/>
</g>
</svg>
