<?xml version="1.0" encoding="utf-8"?>
<!-- Generator: Adobe Illustrator 16.0.4, SVG Export Plug-In . SVG Version: 6.00 Build 0)  -->
<!DOCTYPE svg PUBLIC "-//W3C//DTD SVG 1.1//EN" "http://www.w3.org/Graphics/SVG/1.1/DTD/svg11.dtd">
<svg version="1.1" id="Layer_1" xmlns="http://www.w3.org/2000/svg" xmlns:xlink="http://www.w3.org/1999/xlink" x="0px" y="0px"
	 width="1920px" height="147px" viewBox="0 0 1920 147" enable-background="new 0 0 1920 147" xml:space="preserve">
<g id="Layer_2">
	<path fill="#F2F2F2" d="M960,7C429.807,7,0,38.341,0,77v70h1920V77C1920,38.341,1490.193,7,960,7z"/>
	<g>
		<circle fill="#FFFFFF" cx="837" cy="62" r="15"/>
		<circle fill="#DDDDDD" cx="837" cy="62" r="14"/>
		<path fill="#CCCCCC" d="M839,51c4.209,0,7.975,1.867,10.541,4.808C847.255,51.186,842.505,48,837,48c-7.731,0-14,6.269-14,14
			c0,3.522,1.311,6.732,3.459,9.192C825.533,69.323,825,67.227,825,65C825,57.269,831.269,51,839,51z"/>
	</g>
	<g>
		<circle fill="#FFFFFF" cx="1545" cy="71" r="15"/>
		<circle fill="#DDDDDD" cx="1545" cy="71" r="14"/>
		<path fill="#CCCCCC" d="M1547,60c4.209,0,7.975,1.867,10.541,4.808C1555.255,60.186,1550.505,57,1545,57c-7.731,0-14,6.269-14,14
			c0,3.522,1.311,6.732,3.459,9.192C1533.533,78.323,1533,76.227,1533,74C1533,66.269,1539.269,60,1547,60z"/>
	</g>
	<g>
		<circle fill="#FFFFFF" cx="1152" cy="72" r="15"/>
		<circle fill="#DDDDDD" cx="1152" cy="72" r="14"/>
		<path fill="#CCCCCC" d="M1154,61c4.209,0,7.975,1.867,10.541,4.808C1162.255,61.186,1157.505,58,1152,58c-7.731,0-14,6.269-14,14
			c0,3.522,1.311,6.732,3.459,9.192C1140.533,79.323,1140,77.227,1140,75C1140,67.269,1146.269,61,1154,61z"/>
	</g>
	<g>
		<circle fill="#FFFFFF" cx="262" cy="72" r="15"/>
		<circle fill="#DDDDDD" cx="262" cy="72" r="14"/>
		<path fill="#CCCCCC" d="M264,61c4.209,0,7.975,1.867,10.541,4.808C272.255,61.186,267.505,58,262,58c-7.731,0-14,6.269-14,14
			c0,3.522,1.311,6.732,3.459,9.192C250.533,79.323,250,77.227,250,75C250,67.269,256.269,61,264,61z"/>
	</g>
	<g>
		<circle fill="#FFFFFF" cx="582" cy="42" r="15"/>
		<circle fill="#DDDDDD" cx="582" cy="42" r="14"/>
		<path fill="#CCCCCC" d="M584,31c4.209,0,7.975,1.867,10.541,4.808C592.255,31.186,587.505,28,582,28c-7.731,0-14,6.269-14,14
			c0,3.522,1.311,6.732,3.459,9.192C570.533,49.323,570,47.227,570,45C570,37.269,576.269,31,584,31z"/>
	</g>
	<circle fill="#FFFFFF" cx="1328.5" cy="38.5" r="21.5"/>
	<circle fill="#DDDDDD" cx="1328.5" cy="38.5" r="20.5"/>
	<path fill="#CCCCCC" d="M1331.5,21c4.896,0,9.388,1.723,12.913,4.587c-3.759-4.626-9.488-7.587-15.913-7.587
		c-11.321,0-20.5,9.179-20.5,20.5c0,6.425,2.961,12.154,7.587,15.913c-2.864-3.525-4.587-8.017-4.587-12.913
		C1311,30.179,1320.179,21,1331.5,21z"/>
	<circle fill="#FFFFFF" cx="1033" cy="26" r="9"/>
	<circle fill="#DDDDDD" cx="1033" cy="26" r="8"/>
	<circle fill="#E2E2E2" cx="1045" cy="39" r="5"/>
	<circle fill="#E2E2E2" cx="1048" cy="30" r="3"/>
	<circle fill="#E2E2E2" cx="1053" cy="36" r="2"/>
	<circle fill="#E2E2E2" cx="1680" cy="50" r="5"/>
	<circle fill="#E2E2E2" cx="1677" cy="41" r="3"/>
	<circle fill="#E2E2E2" cx="1672" cy="47" r="2"/>
	<circle fill="#E2E2E2" cx="352.353" cy="43.177" r="6.177"/>
	<circle fill="#E2E2E2" cx="348.647" cy="54.294" r="3.706"/>
	<circle fill="#E2E2E2" cx="342.471" cy="46.883" r="2.471"/>
	<circle fill="#E2E2E2" cx="247" cy="87" r="3"/>
	<circle fill="#E2E2E2" cx="242" cy="81" r="2"/>
	<circle fill="#E2E2E2" cx="808" cy="20" r="3"/>
	<circle fill="#E2E2E2" cx="813" cy="26" r="2"/>
	<g>
		<circle fill="#FFFFFF" cx="863" cy="54" r="7"/>
		<circle fill="#DDDDDD" cx="863" cy="54" r="6"/>
		<path fill="#CCCCCC" d="M864,49c1.402,0,2.688,0.484,3.709,1.29C866.611,48.897,864.912,48,863,48c-3.313,0-6,2.687-6,6
			c0,1.912,0.897,3.611,2.291,4.71C858.484,57.688,858,56.401,858,55C858,51.687,860.687,49,864,49z"/>
	</g>
	<g>
		<circle fill="#FFFFFF" cx="556" cy="30" r="7"/>
		<circle fill="#DDDDDD" cx="556" cy="30" r="6"/>
		<path fill="#CCCCCC" d="M557,25c1.402,0,2.688,0.484,3.709,1.29C559.611,24.897,557.912,24,556,24c-3.313,0-6,2.687-6,6
			c0,1.912,0.897,3.611,2.291,4.71C551.484,33.688,551,32.401,551,31C551,27.687,553.687,25,557,25z"/>
	</g>
	<circle fill="#FFFFFF" cx="1296" cy="26" r="7"/>
	<circle fill="#DDDDDD" cx="1296" cy="26" r="6"/>
	<path fill="#CCCCCC" d="M1297,21c1.402,0,2.688,0.484,3.709,1.29c-1.098-1.393-2.797-2.29-4.709-2.29c-3.313,0-6,2.687-6,6
		c0,1.912,0.897,3.611,2.291,4.71c-0.807-1.021-1.291-2.309-1.291-3.71C1291,23.687,1293.687,21,1297,21z"/>
	<path fill="#CCCCCC" d="M1034,19c1.954,0,3.743,0.703,5.133,1.867C1037.665,19.115,1035.464,18,1033,18c-4.418,0-8,3.582-8,8
		c0,2.464,1.115,4.665,2.867,6.133c-1.164-1.39-1.867-3.179-1.867-5.133C1026,22.582,1029.582,19,1034,19z"/>
	<circle fill="#E2E2E2" cx="664" cy="80" r="5"/>
	<circle fill="#E2E2E2" cx="678" cy="78" r="7"/>
	<circle fill="#E2E2E2" cx="1342" cy="64" r="5"/>
	<circle fill="#E2E2E2" cx="1328" cy="69" r="7"/>
	<circle fill="#E2E2E2" cx="668" cy="70" r="3"/>
</g>
</svg>
