<?xml version="1.0" encoding="utf-8"?>
<!-- Generator: Adobe Illustrator 16.0.4, SVG Export Plug-In . SVG Version: 6.00 Build 0)  -->
<!DOCTYPE svg PUBLIC "-//W3C//DTD SVG 1.1//EN" "http://www.w3.org/Graphics/SVG/1.1/DTD/svg11.dtd">
<svg version="1.1" xmlns="http://www.w3.org/2000/svg" xmlns:xlink="http://www.w3.org/1999/xlink" x="0px" y="0px" width="1920px"
	 height="147px" viewBox="0 0 1920 147" enable-background="new 0 0 1920 147" xml:space="preserve">
<g id="Layer_2">
	<path opacity="0.1" d="M1920,70.5898438c-4.8017578-4.3916016-11.9140625-7.5380859-17.8642578-9.8095703
		C1889.1835938,55.8359375,1870.0097656,51,1845.1484375,46.4072266
		c-48.5566406-8.96875-117.9863281-17.0166016-206.3583984-23.9208984
		C1457.3183594,8.3085938,1216.0761719,0.5009766,959.5,0.5009766c-256.5756836,0-497.8188477,7.8076172-679.2895508,21.9853516
		C191.8374023,29.390625,122.4086914,37.4384766,73.8515625,46.4072266C48.9897461,51,29.8164062,55.8359375,16.8637695,60.7802734
		C11.3134766,62.8994141,4.7543945,65.78125,0,69.7236328V77h1920V70.5898438z"/>
	<path fill="#F2F2F2" d="M960,7C429.8066406,7,0,38.3408203,0,77v70h1920V77C1920,38.3408203,1490.1933594,7,960,7z"/>
	<g>
		<circle fill="#FFFFFF" cx="837" cy="62" r="15"/>
		<circle fill="#DDDDDD" cx="837" cy="62" r="14"/>
		<path fill="#CCCCCC" d="M839,51c4.2089844,0,7.9750977,1.8671875,10.5415039,4.8076172
			C847.2548828,51.1855469,842.5048828,48,837,48c-7.7314453,0-14,6.2685547-14,14
			c0,3.5224609,1.3105469,6.7324219,3.4584961,9.1923828C825.5336914,69.3232422,825,67.2265625,825,65
			C825,57.2685547,831.2685547,51,839,51z"/>
	</g>
	<g>
		<circle fill="#FFFFFF" cx="1545" cy="71" r="15"/>
		<circle fill="#DDDDDD" cx="1545" cy="71" r="14"/>
		<path fill="#CCCCCC" d="M1547,60c4.2089844,0,7.9746094,1.8671875,10.5410156,4.8076172
			C1555.2548828,60.1855469,1550.5048828,57,1545,57c-7.7314453,0-14,6.2685547-14,14
			c0,3.5224609,1.3105469,6.7324219,3.4589844,9.1923828C1533.5332031,78.3232422,1533,76.2265625,1533,74
			C1533,66.2685547,1539.2685547,60,1547,60z"/>
	</g>
	<g>
		<circle fill="#FFFFFF" cx="1152" cy="72" r="15"/>
		<circle fill="#DDDDDD" cx="1152" cy="72" r="14"/>
		<path fill="#CCCCCC" d="M1154,61c4.2089844,0,7.9746094,1.8671875,10.5410156,4.8076172
			C1162.2548828,61.1855469,1157.5048828,58,1152,58c-7.7314453,0-14,6.2685547-14,14
			c0,3.5224609,1.3105469,6.7324219,3.4589844,9.1923828C1140.5332031,79.3232422,1140,77.2265625,1140,75
			C1140,67.2685547,1146.2685547,61,1154,61z"/>
	</g>
	<g>
		<circle fill="#FFFFFF" cx="262" cy="72" r="15"/>
		<circle fill="#DDDDDD" cx="262" cy="72" r="14"/>
		<path fill="#CCCCCC" d="M264,61c4.2089844,0,7.9746094,1.8671875,10.5410156,4.8076172
			C272.2548828,61.1855469,267.5048828,58,262,58c-7.7314453,0-14,6.2685547-14,14
			c0,3.5224609,1.3105469,6.7324219,3.4589844,9.1923828C250.5332031,79.3232422,250,77.2265625,250,75
			C250,67.2685547,256.2685547,61,264,61z"/>
	</g>
	<g>
		<circle fill="#FFFFFF" cx="582" cy="42" r="15"/>
		<circle fill="#DDDDDD" cx="582" cy="42" r="14"/>
		<path fill="#CCCCCC" d="M584,31c4.2089844,0,7.9746094,1.8671875,10.5410156,4.8076172
			C592.2548828,31.1855469,587.5048828,28,582,28c-7.7314453,0-14,6.2685547-14,14
			c0,3.5224609,1.3105469,6.7324219,3.4589844,9.1923828C570.5332031,49.3232422,570,47.2265625,570,45
			C570,37.2685547,576.2685547,31,584,31z"/>
	</g>
	<circle fill="#FFFFFF" cx="1328.5" cy="38.5" r="21.5"/>
	<circle fill="#DDDDDD" cx="1328.5" cy="38.5" r="20.5"/>
	<path fill="#CCCCCC" d="M1331.5,21c4.8964844,0,9.3876953,1.7226562,12.9130859,4.5869141
		C1340.6542969,20.9609375,1334.9248047,18,1328.5,18c-11.3212891,0-20.5,9.1787109-20.5,20.5
		c0,6.4248047,2.9609375,12.1542969,7.5869141,15.9130859C1312.7226562,50.8876953,1311,46.3964844,1311,41.5
		C1311,30.1787109,1320.1787109,21,1331.5,21z"/>
	<circle fill="#FFFFFF" cx="1033" cy="26" r="9"/>
	<circle fill="#DDDDDD" cx="1033" cy="26" r="8"/>
	<circle fill="#E2E2E2" cx="1045" cy="39" r="5"/>
	<circle fill="#E2E2E2" cx="1048" cy="30" r="3"/>
	<circle fill="#E2E2E2" cx="1053" cy="36" r="2"/>
	<circle fill="#E2E2E2" cx="1680" cy="50" r="5"/>
	<circle fill="#E2E2E2" cx="1677" cy="41" r="3"/>
	<circle fill="#E2E2E2" cx="1672" cy="47" r="2"/>
	<circle fill="#E2E2E2" cx="352.3527832" cy="43.1767578" r="6.1765137"/>
	<circle fill="#E2E2E2" cx="348.6472168" cy="54.2939453" r="3.7058105"/>
	<circle fill="#E2E2E2" cx="342.4707031" cy="46.8828125" r="2.4707031"/>
	<circle fill="#E2E2E2" cx="247" cy="87" r="3"/>
	<circle fill="#E2E2E2" cx="242" cy="81" r="2"/>
	<circle fill="#E2E2E2" cx="808" cy="20" r="3"/>
	<circle fill="#E2E2E2" cx="813" cy="26" r="2"/>
	<g>
		<circle fill="#FFFFFF" cx="863" cy="54" r="7"/>
		<circle fill="#DDDDDD" cx="863" cy="54" r="6"/>
		<path fill="#CCCCCC" d="M864,49c1.4018555,0,2.6884766,0.484375,3.7094727,1.2900391
			C866.6108398,48.8974609,864.9116211,48,863,48c-3.3134766,0-6,2.6865234-6,6
			c0,1.9121094,0.8974609,3.6113281,2.2905273,4.7099609C858.4848633,57.6884766,858,56.4013672,858,55
			C858,51.6865234,860.6865234,49,864,49z"/>
	</g>
	<g>
		<circle fill="#FFFFFF" cx="556" cy="30" r="7"/>
		<circle fill="#DDDDDD" cx="556" cy="30" r="6"/>
		<path fill="#CCCCCC" d="M557,25c1.4018555,0,2.6884766,0.484375,3.7094727,1.2900391
			C559.6108398,24.8974609,557.9116211,24,556,24c-3.3134766,0-6,2.6865234-6,6
			c0,1.9121094,0.8974609,3.6113281,2.2905273,4.7099609C551.4848633,33.6884766,551,32.4013672,551,31
			C551,27.6865234,553.6865234,25,557,25z"/>
	</g>
	<circle fill="#FFFFFF" cx="1296" cy="26" r="7"/>
	<circle fill="#DDDDDD" cx="1296" cy="26" r="6"/>
	<path fill="#CCCCCC" d="M1297,21c1.4023438,0,2.6884766,0.484375,3.7089844,1.2900391
		C1299.6113281,20.8974609,1297.9121094,20,1296,20c-3.3134766,0-6,2.6865234-6,6
		c0,1.9121094,0.8974609,3.6113281,2.2910156,4.7099609C1291.484375,29.6884766,1291,28.4013672,1291,27
		C1291,23.6865234,1293.6865234,21,1297,21z"/>
	<path fill="#CCCCCC" d="M1034,19c1.9541016,0,3.7431641,0.703125,5.1328125,1.8671875
		C1037.6650391,19.1152344,1035.4638672,18,1033,18c-4.4179688,0-8,3.5820312-8,8
		c0,2.4638672,1.1152344,4.6650391,2.8671875,6.1328125C1026.703125,30.7431641,1026,28.9541016,1026,27
		C1026,22.5820312,1029.5820312,19,1034,19z"/>
	<circle fill="#E2E2E2" cx="664" cy="80" r="5"/>
	<circle fill="#E2E2E2" cx="678" cy="78" r="7"/>
	<circle fill="#E2E2E2" cx="1342" cy="64" r="5"/>
	<circle fill="#E2E2E2" cx="1328" cy="69" r="7"/>
	<circle fill="#E2E2E2" cx="668" cy="70" r="3"/>
</g>
</svg>
