<?xml version="1.0" encoding="utf-8"?>
<!-- Generator: Adobe Illustrator 16.0.4, SVG Export Plug-In . SVG Version: 6.00 Build 0)  -->
<!DOCTYPE svg PUBLIC "-//W3C//DTD SVG 1.1//EN" "http://www.w3.org/Graphics/SVG/1.1/DTD/svg11.dtd">
<svg version="1.1" xmlns="http://www.w3.org/2000/svg" xmlns:xlink="http://www.w3.org/1999/xlink" x="0px" y="0px"
	 width="44px" height="244px" viewBox="0 0 44 244" enable-background="new 0 0 44 244"
	 xml:space="preserve">
<g id="Layer_1">
	<g>
		<path fill="#374760" d="M42.0004883,244c-20-50-19-120-19-120h-2c0,0,1,70-19,120H42.0004883z"/>
		<path fill="#FFAA00" d="M18.0004883,83c0,0,3,22,3,41c0,0.5527344,0.4477539,1,1,1s1-0.4472656,1-1c0-19,3-41,3-41H18.0004883z"/>
		<path fill="#293449" d="M25.0678711,11.4785156c0.1015625,0.1445312,0.2089844,0.2851562,0.3095703,0.4301758
			C25.284668,11.7568359,25.1791992,11.6162109,25.0678711,11.4785156z"/>
		<path fill="#293449" d="M18.6337891,11.8916016c0.0917969-0.1318359,0.1889648-0.2592773,0.2817383-0.3901367
			C18.8149414,11.6269531,18.71875,11.7543945,18.6337891,11.8916016z"/>
		<path fill="#73797F" d="M23.0004883,1c0-0.5522461-0.4477539-1-1-1s-1,0.4477539-1,1
			c0,0.4926758,0.362793,0.8833008,0.8320312,0.9658203L21.0004883,12h2L22.168457,1.9658203
			C22.6376953,1.8833008,23.0004883,1.4926758,23.0004883,1z"/>
		<path fill="#FFD400" d="M22.0004883,107c-2.1030273-19.1396484-4-23-4-23h8C26.0004883,84,23.940918,88.0761719,22.0004883,107z"
			/>
		<path fill="#73797F" d="M14.0146484,78.3574219c1.3178711,2.5957031,2.7958984,5.0966797,4.4370117,7.4775391
			C19.621582,85.9375,20.8037109,86,22.0004883,86c1.1962891,0,2.3779297-0.0625,3.5478516-0.1650391
			c1.6416016-2.3808594,3.1191406-4.8818359,4.4375-7.4775391C27.3842773,78.7753906,24.7192383,79,22.0004883,79
			C19.28125,79,16.6157227,78.7753906,14.0146484,78.3574219z"/>
		<path fill="#590000" d="M28.0004883,49l14,22v24c0,0-2-22-14-22V49z"/>
		<path fill="#590000" d="M16.0004883,49l-14,22v24c0,0,2-22,14-22V49z"/>
		<path fill="#374760" d="M2.0004883,96c0,0-1,8.7080078-1,26.125c0-17.4169922-1-26.125-1-26.125"/>
		<path fill="#A50000" d="M1.0004883,68c0.5527344,0,1,0.4472656,1,1v27c0,0.5527344-0.4472656,1-1,1s-1-0.4472656-1-1V69
			C0.0004883,68.4472656,0.4477539,68,1.0004883,68z"/>
		<path fill="#374760" d="M42.0004883,96h2c0,0-1,8.7080078-1,26.125C43.0004883,104.7080078,42.0004883,96,42.0004883,96z"/>
		<path fill="#A50000" d="M43.0004883,68c-0.5527344,0-1,0.4472656-1,1v27c0,0.5527344,0.4472656,1,1,1s1-0.4472656,1-1V69
			C44.0004883,68.4472656,43.5532227,68,43.0004883,68z"/>
		<path fill="#FFFFFF" d="M8.0537109,37.3530273C7.3691406,41.1328125,7.0004883,45.0224609,7.0004883,49
			c0,10.5683594,2.5361328,20.5390625,7.0141602,29.3574219C16.6157227,78.7753906,19.28125,79,22.0004883,79
			c2.71875,0,5.3837891-0.2246094,7.9853516-0.6425781C34.4643555,69.5390625,37.0004883,59.5683594,37.0004883,49
			c0-3.9775391-0.3681641-7.8671875-1.0537109-11.6469727C31.4702148,38.4194336,26.8041992,39,22.0004883,39
			S12.5307617,38.4194336,8.0537109,37.3530273z"/>
		<path fill="#590000" d="M22.0004883,61c-0.5527344,0-1,0.4472656-1,1v29c0,0.5527344,0.4472656,1,1,1s1-0.4472656,1-1V62
			C23.0004883,61.4472656,22.5532227,61,22.0004883,61z"/>
		<path fill="#590000" d="M8.4638672,35.3955078c-0.1391602,0.6513672-0.2910156,1.2988281-0.4101562,1.9575195
			C12.5307617,38.4194336,17.1967773,39,22.0004883,39s9.4697266-0.5805664,13.9462891-1.6469727
			c-0.1191406-0.6586914-0.2705078-1.3056641-0.4101562-1.9575195C31.1918945,36.4345703,26.6635742,37,22.0004883,37
			S12.8085938,36.4345703,8.4638672,35.3955078z"/>
		<path fill="#A50000" d="M25.0678711,11.4785156C24.340332,10.5834961,23.2446289,10,22.0009766,10
			c-1.2539062,0-2.3579102,0.5932617-3.0854492,1.5014648c-0.0927734,0.1308594-0.1899414,0.2583008-0.2817383,0.3901367
			c-4.8491211,6.9599609-8.3413086,14.9238281-10.1699219,23.5039062C12.8085938,36.4345703,17.3374023,37,22.0004883,37
			s9.1914062-0.5654297,13.5361328-1.6044922c-1.8271484-8.5732422-5.3154297-16.5307617-10.1591797-23.4868164
			C25.2768555,11.7636719,25.1694336,11.6230469,25.0678711,11.4785156z"/>
		<circle fill="#293449" cx="22.0004883" cy="38" r="7"/>
		<circle fill="#7596CC" cx="22.0004883" cy="38" r="5"/>
		<circle fill="#293449" cx="22.0004883" cy="53" r="4"/>
		<circle fill="#7596CC" cx="22.0004883" cy="53" r="2"/>
		<path fill="#FFAA00" d="M22.0532227,109.03125"/>
		<path fill="#A50000" d="M22.0004883,68c-0.5527344,0-1,0.4472656-1,1v27c0,0.5527344,0.4472656,1,1,1s1-0.4472656,1-1V69
			C23.0004883,68.4472656,22.5532227,68,22.0004883,68z"/>
		<path opacity="0.2" d="M43.0004883,68c-0.5527344,0-1,0.4472656-1,1v2l-6.1738281-9.7021484
			C36.5922852,57.3154297,37.0004883,53.2060547,37.0004883,49c0-3.9775391-0.3681641-7.8671875-1.0537109-11.6469727
			c-0.1191406-0.6586914-0.2705078-1.3056641-0.4101562-1.9575195c-1.8271484-8.5732422-5.3154297-16.5307617-10.1591797-23.4868164
			c-0.1005859-0.1450195-0.2080078-0.2856445-0.3095703-0.4301758c-0.5576172-0.6860352-1.3339844-1.1826172-2.2255859-1.3803711
			L22.168457,1.9658203C22.637207,1.8833008,23.0004883,1.4926758,23.0004883,1c0-0.5522461-0.4472656-1-1-1v125
			c0.5527344,0,1-0.4472656,1-1c0-15.0292969,1.8759766-31.9248047,2.6601562-38.3349609
			c1.5957031-2.3300781,3.0380859-4.7724609,4.3251953-7.3076172c0.7333984-1.4433594,1.4082031-2.9208984,2.0351562-4.4238281
			C40.465332,78.1230469,42.0004883,95,42.0004883,95v1c0,0.5527344,0.4472656,1,1,1s1-0.4472656,1-1V69
			C44.0004883,68.4472656,43.5532227,68,43.0004883,68z"/>
		<path opacity="0.2" d="M1.0004883,68v29c0.5527344,0,1-0.4472656,1-1V69C2.0004883,68.4472656,1.5532227,68,1.0004883,68z"/>
		<path opacity="0.2" d="M43.0004883,68v29c0.5527344,0,1-0.4472656,1-1V69C44.0004883,68.4472656,43.5532227,68,43.0004883,68z"/>
	</g>
</g>
</svg>
