<?xml version="1.0" encoding="utf-8"?>
<!-- Generator: Adobe Illustrator 16.0.4, SVG Export Plug-In . SVG Version: 6.00 Build 0)  -->
<!DOCTYPE svg PUBLIC "-//W3C//DTD SVG 1.1//EN" "http://www.w3.org/Graphics/SVG/1.1/DTD/svg11.dtd">
<svg version="1.1" xmlns="http://www.w3.org/2000/svg" xmlns:xlink="http://www.w3.org/1999/xlink" x="0px" y="0px"
	 width="242px" height="57px" viewBox="0 0 242 57" enable-background="new 0 0 242 57"
	 xml:space="preserve">
<g id="Layer_1">
	<g>
		<path fill="#FFFFFF" d="M1.0004883,32.6074219l5.7958984-4.3476562c1.4482422,1.8007812,3.2485352,3.25,6.2348633,3.25
			c2.3710938,0,3.7758789-0.7021484,3.7758789-2.3701172c0-1.2744141-0.9663086-1.8886719-2.9418945-2.546875l-3.512207-1.1855469
			c-4.3476562-1.4492188-7.4213867-4.0830078-7.4213867-9.0009766c0-5.8837891,4.8745117-8.9140625,10.1870117-8.9140625
			c5.2685547,0,8.4301758,1.8886719,10.1870117,3.9521484l-4.5664062,4.7861328
			c-1.2294922-1.2734375-2.8100586-2.1523438-5.1816406-2.1523438c-1.9316406,0-2.8974609,0.8789062-2.8974609,2.0644531
			c0,1.140625,0.6582031,1.7119141,2.1074219,2.1953125l3.9516602,1.3164062
			c5.9711914,1.9765625,7.9916992,4.8300781,7.9916992,9.0449219c0,5.4882812-3.425293,9.4404297-11.3291016,9.4404297
			C6.6640625,38.1396484,2.8442383,35.0664062,1.0004883,32.6074219z"/>
		<path fill="#FFFFFF" d="M35.1235352,37.7011719h-7.9907227V7.84375h12.0742188
			c7.5957031,0,11.8110352,4.6103516,11.8110352,10.7138672c0,6.1025391-4.215332,10.5820312-11.8110352,10.5820312h-4.0834961
			V37.7011719z M38.8115234,22.4648438c2.722168,0,4.171875-1.4492188,4.171875-3.9072266
			c0-2.4599609-1.449707-3.9521484-4.171875-3.9521484h-3.6879883v7.859375H38.8115234z"/>
		<path fill="#FFFFFF" d="M89.5483398,38.0957031c-8.3857422,0-15.5429688-6.3232422-15.5429688-15.3232422
			c0-9.0009766,7.112793-15.2802734,15.1040039-15.2802734c6.4550781,0,10.4067383,2.7226562,12.9086914,6.4111328
			l-6.0146484,4.0830078c-1.1416016-1.7558594-2.9858398-3.5556641-6.7617188-3.5556641
			c-4.3911133,0-7.0693359,3.6435547-7.0693359,8.3417969s2.7661133,8.3867188,7.3320312,8.3867188
			c3.8642578,0,5.7529297-1.7568359,7.0258789-4.1279297l6.1469727,3.9511719
			C99.7353516,35.9453125,95.6083984,38.0957031,89.5483398,38.0957031z"/>
		<path fill="#FFFFFF" d="M105.1381836,7.84375h20.9433594v6.71875h-12.9541016v4.9169922h10.8027344v6.3662109h-10.8027344
			v5.1367188h13.5673828v6.71875h-21.5566406V7.84375z"/>
		<path fill="#FFFFFF" d="M144.612793,27.2060547v-6.1464844h14.0947266c0,0,0.0439453,0.8789062,0.0439453,1.7128906
			c0,10.1855469-5.8408203,15.3671875-14.6660156,15.3671875c-8.6933594,0-15.5859375-6.3671875-15.5859375-15.3671875
			c0-9.0009766,7.0253906-15.2802734,15.4550781-15.2802734c5.75,0,10.3164062,2.546875,12.6455078,6.7177734l-6.3671875,3.8642578
			c-1.1425781-2.0195312-3.0742188-3.6435547-6.4111328-3.6435547c-4.7402344,0-7.1552734,3.6435547-7.1552734,8.3417969
			s2.5458984,8.5175781,7.4638672,8.5175781c3.7324219,0,5.4882812-1.2734375,6.3662109-4.0839844H144.612793z"/>
		<path fill="#FFFFFF" d="M225.1049805,14.5625h-7.9033203V7.84375h23.7988281v6.71875h-7.9033203v23.1386719h-7.9921875V14.5625z"
			/>
		<path fill="#FFFFFF" d="M61.2509766,7.3173828c-0.1323242-0.3076172-0.3959961-0.3076172-0.5273438,0L46.190918,37.7011719
			h7.8154297l6.6293945-15.71875l6.8500977,15.71875h8.2543945L61.2509766,7.3173828z"/>
		<path fill="#FFFFFF" d="M206.9858398,7.3173828c-0.1318359-0.3076172-0.3964844-0.3076172-0.5283203,0l-14.5332031,30.3837891
			h7.8164062l6.6298828-15.71875l6.8496094,15.71875h8.2548828L206.9858398,7.3173828z"/>
		<g opacity="0.15">
			<path fill="#231F20" d="M186.253418,8.7089844c2.6533203,2.8564453,4.2792969,6.6806641,4.2792969,10.8867188
				c0,8.8339844-7.1601562,15.9960938-15.9960938,15.9960938c-4.2050781,0-8.03125-1.625-10.8867188-4.2802734
				c2.8779297,4.8232422,8.1455078,8.0556641,14.1689453,8.0556641c9.1074219,0,16.4902344-7.3828125,16.4902344-16.4902344
				C194.309082,16.8544922,191.0756836,11.5869141,186.253418,8.7089844z"/>
		</g>
		<g opacity="0.2">
			<g>
				<path fill="#FFFFFF" d="M173.3579102,10.7978516c-0.4492188-0.2939453-0.671875-0.4414062-1.1210938-0.7363281
					c-2.7470703,1.4326172-3.9052734,2.5175781-5.4931641,4.9863281c0.7451172,0.2734375,1.1162109,0.4101562,1.8574219,0.6855469
					C169.9067383,13.34375,170.902832,12.2685547,173.3579102,10.7978516z"/>
				<path fill="#FFFFFF" d="M166.2250977,15.9228516c-1.4042969,2.5859375-1.7880859,4.1074219-1.578125,7.0898438
					c1.0205078,0.1523438,1.53125,0.2294922,2.5537109,0.3808594c-0.4121094-2.8232422-0.1611328-4.2871094,0.9794922-6.8105469
					C167.3979492,16.3173828,167.0073242,16.1865234,166.2250977,15.9228516z"/>
				<path fill="#FFFFFF" d="M173.8334961,11.1103516c-2.4003906,1.4423828-3.3769531,2.4960938-4.6513672,4.8388672
					c0.7832031,0.2910156,1.1748047,0.4375,1.9570312,0.7294922c0.9912109-2.2568359,1.8076172-3.2988281,3.9121094-4.7705078
					C174.5639648,11.5888672,174.3188477,11.4296875,173.8334961,11.1103516z"/>
				<path fill="#FFFFFF" d="M167.8188477,23.4853516c1.0615234,0.1582031,1.5908203,0.2373047,2.6523438,0.3955078
					c-0.6103516-2.6083984-0.5-3.984375,0.3476562-6.3964844c-0.8173828-0.28125-1.2275391-0.421875-2.0478516-0.7001953
					C167.6557617,19.2666016,167.409668,20.7080078,167.8188477,23.4853516z"/>
			</g>
		</g>
		<g opacity="0.4">
			<path fill="#231F20" d="M195.2485352,3.0097656c-0.1601562-0.1894531-0.3515625-0.3378906-0.5507812-0.4628906
				c0.7158203,0.8642578,0.6035156,2.1474609-0.2587891,2.8691406c-0.8642578,0.7265625-2.1523438,0.6132812-2.8798828-0.2509766
				c-0.1640625-0.1972656-0.2792969-0.4169922-0.3603516-0.6464844c0.0068359,0.5117188,0.1738281,1.0244141,0.5273438,1.4462891
				c0.8154297,0.9716797,2.265625,1.0986328,3.2373047,0.2832031
				C195.9360352,5.4316406,196.0629883,3.9824219,195.2485352,3.0097656z"/>
		</g>
		<g opacity="0.4">
			<path fill="#231F20" d="M163.4174805,3.0234375c-0.1601562-0.1914062-0.3496094-0.3378906-0.5498047-0.4628906
				c0.7158203,0.8642578,0.6015625,2.1464844-0.2578125,2.8691406c-0.8652344,0.7265625-2.1542969,0.6132812-2.8808594-0.2519531
				c-0.1640625-0.1962891-0.2802734-0.4169922-0.3603516-0.6455078c0.0058594,0.5117188,0.1728516,1.0234375,0.5263672,1.4462891
				c0.8164062,0.9716797,2.2666016,1.0976562,3.2382812,0.2832031
				C164.105957,5.4462891,164.2319336,3.9960938,163.4174805,3.0234375z"/>
		</g>
		<path fill="#FFFFFF" d="M193.4995117,7.4550781c0.8779297,0,1.7021484-0.3847656,2.265625-1.0556641
			c1.046875-1.2470703,0.8828125-3.1152344-0.3652344-4.1611328c-0.53125-0.4462891-1.2041016-0.6914062-1.8974609-0.6914062
			c-0.8759766,0-1.7011719,0.3837891-2.2646484,1.0546875c-0.8535156,1.019043-0.8886719,2.4423828-0.2001953,3.5024414
			L187.371582,9.453125c-2.6972656-1.9228516-5.9882812-3.0654297-9.5527344-3.0654297
			c-3.6826172,0-7.0712891,1.222168-9.8164062,3.2626953l-3.8818359-3.5458984
			c0.6894531-1.0605469,0.6542969-2.4838867-0.1992188-3.5029297c-0.5644531-0.6708984-1.3896484-1.0546875-2.2646484-1.0546875
			c-0.6943359,0-1.3691406,0.2451172-1.8984375,0.6914062c-1.2480469,1.0458984-1.4121094,2.9140625-0.3662109,4.1611328
			c0.5644531,0.6708984,1.3876953,1.0556641,2.265625,1.0556641c0.3994141,0,0.7900391-0.0908203,1.1533203-0.2460938
			l2.8740234,4.5297852c-2.6962891,2.9355469-4.3554688,6.8383789-4.3554688,11.1381836
			c0,9.1074219,7.3818359,16.4902344,16.4892578,16.4902344s16.4902344-7.3828125,16.4902344-16.4902344
			c0-4.4506836-1.7714844-8.4819336-4.6386719-11.4487305l2.6777344-4.2182617
			C192.7114258,7.3647461,193.1010742,7.4550781,193.4995117,7.4550781z M163.387207,5.4345703
			c-0.1152344,0.2128906-0.2675781,0.409668-0.4638672,0.5742188c-0.1962891,0.1655273-0.4169922,0.2822266-0.6464844,0.3583984
			c-0.2011719,0.0673828-0.4101562,0.1035156-0.6191406,0.1035156c-0.5625,0-1.1201172-0.2392578-1.5087891-0.7041016
			c-0.7001953-0.8330078-0.5908203-2.0761719,0.2421875-2.7753906c0.3681641-0.3085938,0.8173828-0.4599609,1.265625-0.4599609
			c0.5615234,0,1.1191406,0.2392578,1.5087891,0.703125C163.7006836,3.871582,163.7592773,4.7456055,163.387207,5.4345703z
			 M192.996582,22.8769531c0,8.3691406-6.8105469,15.1767578-15.1777344,15.1767578
			c-8.3691406,0-15.1767578-6.8076172-15.1767578-15.1767578c0-3.8237305,1.4326172-7.3125,3.7753906-9.9838867l0.9042969,1.4243164
			c0.2324219,0.2773438,1.0996094-0.0644531,1.9316406-0.7636719c0.8330078-0.6982422,1.3203125-1.4912109,1.0869141-1.7685547
			l-1.3466797-1.2299805c2.4902344-1.7885742,5.5322266-2.8540039,8.8251953-2.8540039
			c3.1748047,0,6.1220703,0.9838867,8.5615234,2.6572266l-1.5615234,1.4267578
			c-0.234375,0.2773438,0.2529297,1.0703125,1.0869141,1.7685547c0.8320312,0.6992188,1.6982422,1.0410156,1.9306641,0.7636719
			l1.1015625-1.7348633C191.4477539,15.2910156,192.996582,18.9023438,192.996582,22.8769531z M191.7709961,5.4335938
			c-0.3710938-0.6889648-0.3125-1.5625,0.2207031-2.1992188c0.390625-0.4638672,0.9482422-0.703125,1.5107422-0.703125
			c0.4472656,0,0.8955078,0.1513672,1.265625,0.4599609c0.8330078,0.6992188,0.9414062,1.9423828,0.2431641,2.7753906
			c-0.3916016,0.4648438-0.9492188,0.7041016-1.5117188,0.7041016c-0.2080078,0-0.4160156-0.0361328-0.6162109-0.1030273
			c-0.2304688-0.0761719-0.4501953-0.1928711-0.6464844-0.3588867C192.0395508,5.84375,191.8862305,5.6464844,191.7709961,5.4335938
			z"/>
		<path fill="#FFFFFF" d="M40.7646484,47.1425781h0.8857422v9.1220703h-0.8857422V47.1425781z"/>
		<path fill="#FFFFFF" d="M52.9047852,49.0869141v7.1777344h-0.8183594v-9.3105469h0.0810547l6.144043,7.3662109v-7.1777344
			h0.8188477v9.3105469H59.050293L52.9047852,49.0869141z"/>
		<path fill="#FFFFFF" d="M71.5117188,47.9199219h-2.8305664v-0.7773438h6.5200195v0.7773438h-2.8168945v8.3447266h-0.8725586
			V47.9199219z"/>
		<path fill="#FFFFFF" d="M84.7514648,47.1425781h5.5009766v0.7773438h-4.628418v3.3681641h4.1323242v0.7636719h-4.1323242
			v3.4355469h4.8168945v0.7773438h-5.6894531V47.1425781z"/>
		<path fill="#FFFFFF" d="M101.2119141,56.2646484h-0.8730469v-9.1220703h2.7241211
			c1.9726562,0,3.0458984,1.1806641,3.0458984,2.7236328c0,1.234375-0.6982422,2.1992188-1.9716797,2.5341797l2.4003906,3.8642578
			h-0.9785156l-2.3085938-3.7285156h-0.2138672h-1.824707V56.2646484z M103.0092773,51.7705078
			c1.4892578,0,2.1875-0.7382812,2.1875-1.9042969c0-1.1816406-0.7109375-1.9462891-2.1875-1.9462891h-1.7973633v3.8505859
			H103.0092773z"/>
		<path fill="#FFFFFF" d="M119.1098633,48.8867188l-2.9677734,7.3779297h-0.8857422l3.8378906-9.3378906h0.0664062
			l3.8515625,9.3378906h-0.9257812L119.1098633,48.8867188z"/>
		<path fill="#FFFFFF" d="M131.4213867,51.7041016c0-2.7109375,2.0263672-4.6689453,4.6152344-4.6689453
			c1.5439453,0,2.765625,0.6298828,3.5839844,1.703125l-0.6738281,0.4824219
			c-0.6826172-0.8847656-1.6484375-1.3945312-2.9228516-1.3945312c-2.1191406,0-3.6904297,1.6630859-3.6904297,3.8779297
			c0,2.2402344,1.5986328,3.8769531,3.7568359,3.8769531c1.3164062,0,2.375-0.5498047,3.0996094-1.515625l0.6845703,0.4824219
			c-0.9013672,1.1806641-2.1738281,1.8251953-3.8105469,1.8251953
			C133.4477539,56.3730469,131.4086914,54.4140625,131.4213867,51.7041016z"/>
		<path fill="#FFFFFF" d="M151.4360352,47.9199219h-2.8310547v-0.7773438h6.5205078v0.7773438h-2.8164062v8.3447266h-0.8730469
			V47.9199219z"/>
		<path fill="#FFFFFF" d="M164.730957,47.1425781h0.8857422v9.1220703h-0.8857422V47.1425781z"/>
		<path fill="#FFFFFF" d="M175.2885742,47.1425781h0.9384766l2.9521484,7.3388672l2.9648438-7.3388672h0.8984375
			l-3.8486328,9.3105469h-0.0546875L175.2885742,47.1425781z"/>
		<path fill="#FFFFFF" d="M192.659668,47.1425781h5.5009766v0.7773438h-4.6289062v3.3681641h4.1328125v0.7636719h-4.1328125
			v3.4355469h4.8173828v0.7773438h-5.6894531V47.1425781z"/>
	</g>
</g>
</svg>
